<svg id="Layer_2" data-name="Layer 2" xmlns="http://www.w3.org/2000/svg" viewBox="0 0 1471.42 1805.49"><defs><style>.cls-1,.cls-6{fill:#fff;}.cls-1,.cls-10,.cls-8{stroke:#231f20;}.cls-1,.cls-10,.cls-12,.cls-8,.cls-9{stroke-miterlimit:10;}.cls-1,.cls-10,.cls-12,.cls-9{stroke-width:6px;}.cls-2{fill:#231f20;}.cls-3{fill:#426fb6;}.cls-4{fill:#f6b5c5;}.cls-5{fill:#f2665b;}.cls-11,.cls-7{fill:#fed800;}.cls-10,.cls-12,.cls-8,.cls-9{fill:none;}.cls-8{stroke-width:3px;}.cls-9{stroke:#fed800;}.cls-11{opacity:0.63;isolation:isolate;}.cls-12{stroke:#f2665b;}.cls-13{fill:#7e7f7f;}.cls-14{fill:#fff2a9;}</style></defs><title>air_rally_illustration_2</title><path class="cls-1" d="M675.37,1253.4s-25.58,40.81,8.53,14.62,42.64-64.57,42.64-64.57" transform="translate(-106.66 -40.98)"/><path class="cls-1" d="M652.22,1246.09s-17.66,15.84-9.74,29.24,54.82-45.08,54.82-45.08" transform="translate(-106.66 -40.98)"/><polygon class="cls-1" points="1145.72 1555.08 1169.57 1688.66 1204.86 1669.02 1193.35 1526.45 1145.72 1555.08"/><path class="cls-2" d="M1274.16,1701.27s-18,70.14-.34,98.86,33.87,46.34,33.87,46.34,20.52-69,19.73-82.93-12-78.7-12-78.7Z" transform="translate(-106.66 -40.98)"/><polygon class="cls-1" points="798.06 1561.47 787.3 1712.54 827.84 1687.51 861.23 1548.35 798.06 1561.47"/><path class="cls-2" d="M940,1698.27s-32.61,48-46,55.26-81.54,83.17-81.54,83.17,53.39,4,93.79-41.41c18.36-20.65,45.51-8.07,44.43-36.23S940,1698.27,940,1698.27Z" transform="translate(-106.66 -40.98)"/><path class="cls-3" d="M1031,790.22s-72.1,84.88-115.12,210.91S838,1182,814.29,1388c-21.88,190.5,11.91,192.67,11.91,192.67s238.55,98.36,243.54,83.53c0,0-31.28-393.72,16.38-591.3,0,0-24.81,423.48,58.41,575.62,0,0,166.64,23.93,239-111.49,0,0-56.27-416.07-152.93-587.91S1062.62,781.05,1031,790.22Z" transform="translate(-106.66 -40.98)"/><path class="cls-4" d="M1270.35,186.44l-30.1,71.38s178,69.47,233.68,101.43,104.15,82.85,104.15,82.85-1.18-65.1-71-116S1270.35,186.44,1270.35,186.44Z" transform="translate(-106.66 -40.98)"/><path class="cls-1" d="M1002.07,572a53,53,0,1,0-29.52,15.5l9.93,52.11s27.16,10,44.45-21.56Z" transform="translate(-106.66 -40.98)"/><path class="cls-2" d="M916.24,518.74l70.61-32.53s4.36,9.26,30.13,48.88c0,0,81.48-61,17.21-141.21C986,333.78,903.3,326.33,852.66,369.94s-61.61,121.21-25.38,165.39c46.92,57.23,81.17,44.06,112.65,48.34C939.93,583.67,908.61,531.09,916.24,518.74Z" transform="translate(-106.66 -40.98)"/><path class="cls-5" d="M1277.93,228c36.55-65.47-20.67-97.23-61.5-100.44-88.45-7-141.62,19.44-175.47,40.3C1041,167.89,1200.76,366.25,1277.93,228Z" transform="translate(-106.66 -40.98)"/><path class="cls-1" d="M707,1168.12s.61,32.9-14.61,48.73-22.54,3.66-15.84-21.92,12.18-52.39,19.49-60.92,24.16-14.58,24.16-14.58a503,503,0,0,1,27.47-81.78C766.63,994.26,830,908.59,830,908.59s33.38-152.42,42.28-191.36,53.4-55.07,53.4-55.07,24.48,27.26,35.6,84c6,30.73,5.52,38,3.8,38.14-3.45.34-69.71,146.15-77.23,162.12s-111.64,160.22-144.63,201.37c0,0,2.16,32.52,1.55,52s-29.24,82.23-36.55,82.84-13-13.75,1-45.42" transform="translate(-106.66 -40.98)"/><path class="cls-1" d="M1389.86,332.42c-.3-12.49-3.35-42.34-11.57-56.65s-27.41-24.06-20.71,1.83-1.83,90.15-1.83,90.15c0,.35-96.27,141.71-109.62,179.26,0,0-153.53,48.4-161.87,56.74s9.18,87.62,47.56,103.47c0,0,126.83-47.56,157.7-70.09,25-18.2,77.57-176.49,96.87-236.63,0,0,26.32-7.93,33.63-26.66a239,239,0,0,1,17-34.41" transform="translate(-106.66 -40.98)"/><path class="cls-6" d="M1220.83,148.16a76.18,76.18,0,0,1,16.2,3.75,68.29,68.29,0,0,1,15.08,7.28,50.34,50.34,0,0,1,12.51,11.43,44.25,44.25,0,0,1,7.52,15.39l.65,2.35-2.53-.07c-11.35-.32-22.68-.79-34-1.19l1.85-4.07c1.76,1.72,3.72,3.44,5.68,5s4,3.13,6.09,4.5a40.87,40.87,0,0,0,6.46,3.53,15.54,15.54,0,0,0,6.43,1.42l.34,5.45c-4.53.38-9,.6-13.47.74s-9,.13-13.47,0c-9-.32-18-1.05-27.05-3.31l2.77-5.09c6,5.33,11.79,10.77,17.63,16.23,2.91,2.74,5.82,5.48,8.7,8.27s5.73,5.56,8.56,8.7l3.55,3.95-5.25.79c-6.94,1.05-13.8,1.73-20.73,2.27s-13.85.8-20.81.77a152.76,152.76,0,0,1-20.89-1.5,83.15,83.15,0,0,1-10.36-2.22,41.46,41.46,0,0,1-9.94-4.19l2.38-2.84a123.11,123.11,0,0,0,11.54,12,105.27,105.27,0,0,0,13.1,10.35,59.81,59.81,0,0,0,14.94,7.29,30.87,30.87,0,0,0,16.54.81,30.75,30.75,0,0,1-16.86.37,58.19,58.19,0,0,1-15.79-6.59,103.32,103.32,0,0,1-14-9.91,126.42,126.42,0,0,1-12.4-11.9l-7.47-8.26,9.86,5.43a38.86,38.86,0,0,0,9.16,3.43,78.76,78.76,0,0,0,9.85,1.81,150.38,150.38,0,0,0,20.27.86c6.79-.09,13.6-.5,20.38-1.13s13.59-1.48,20.24-2.53l-1.7,4.74c-2.52-2.78-5.43-5.57-8.26-8.3s-5.77-5.45-8.68-8.16c-5.83-5.41-11.74-10.75-17.61-16.12l-8.82-8.08,11.59,3c8.22,2.12,17,2.92,25.71,3.27,4.37.17,8.76.16,13.15.12s8.81-.2,13.13-.49L1263,203a20.74,20.74,0,0,1-8.76-2,47.27,47.27,0,0,1-7.24-4.11,74.58,74.58,0,0,1-6.43-5c-2-1.76-4-3.55-5.9-5.54l-4.34-4.48,6.18.41c11.32.76,22.64,1.45,34,2.29l-1.88,2.28a41.05,41.05,0,0,0-6.38-14.48,47.85,47.85,0,0,0-11.3-11.42,70.9,70.9,0,0,0-14.28-8A81.81,81.81,0,0,0,1220.83,148.16Z" transform="translate(-106.66 -40.98)"/><path class="cls-6" d="M836.11,456.06a174,174,0,0,0,2.37,22.71,109.84,109.84,0,0,0,5.81,21.5,74.48,74.48,0,0,0,4.66,10c.43.81.87,1.62,1.37,2.39s.94,1.58,1.44,2.35c1,1.52,2,3.07,3.2,4.52s2.33,2.86,3.51,4.32l1.91,2c.32.34.63.7,1,1l1,1A107.26,107.26,0,0,0,871,535.4a49.17,49.17,0,0,1-10.5-5.21,55.84,55.84,0,0,1-4.79-3.5,58,58,0,0,1-4.35-4.09,54.74,54.74,0,0,1-7.34-9.45c-1.1-1.68-2-3.46-2.94-5.22s-1.69-3.62-2.4-5.49a75.61,75.61,0,0,1-4.9-23.14A71.19,71.19,0,0,1,836.11,456.06Z" transform="translate(-106.66 -40.98)"/><path class="cls-6" d="M852,481.45a77.11,77.11,0,0,0,3.77,7.62,62.07,62.07,0,0,0,4.57,6.87,39,39,0,0,0,5.48,5.76,30.47,30.47,0,0,0,6.46,4.1l-4,3.45c-.64-2-1.17-4-1.65-6s-.92-4-1.28-6.07-.65-4.11-.82-6.21a41,41,0,0,1-.05-6.47l.59-7L869.1,483c1.19,1.61,2.52,3.29,3.85,4.89s2.71,3.2,4.14,4.72A48.9,48.9,0,0,0,881.6,497a22.21,22.21,0,0,0,5.28,3.52,17.12,17.12,0,0,1-6.35-1.85,37.38,37.38,0,0,1-5.69-3.46A57.6,57.6,0,0,1,869.7,491a65.6,65.6,0,0,1-4.7-4.73l4.67-1.52a69.48,69.48,0,0,0,1.47,11.37c.37,1.92.82,3.84,1.25,5.77s.92,3.87,1.41,5.72l1.77,6.76-5.8-3.31c-.68-.39-1.37-.77-2-1.18-.34-.2-.69-.39-1-.61l-.94-.71c-.61-.48-1.27-.91-1.84-1.44l-1.68-1.6a34.82,34.82,0,0,1-5.4-7.3,41.45,41.45,0,0,1-3.37-8.19,36.94,36.94,0,0,1-1-4.25A28.57,28.57,0,0,1,852,481.45Z" transform="translate(-106.66 -40.98)"/><path class="cls-6" d="M981.29,379.11a51.75,51.75,0,0,1,9.05,3.61,69.31,69.31,0,0,1,8.44,5,67.12,67.12,0,0,1,14.38,13.59,62.34,62.34,0,0,1,5.56,8.34,71.75,71.75,0,0,1,4.21,9.12,73.74,73.74,0,0,1,4.17,19.6l1.11,13.27L1021.52,440c-1.81-3.14-3.77-6.38-5.83-9.45s-4.18-6.15-6.45-9.07a80.81,80.81,0,0,0-7.2-8.31,45.07,45.07,0,0,0-8.31-6.73l3.08-2.93c1.24,2.95,2.34,5.87,3.33,8.87s1.93,6,2.69,9.06a69.62,69.62,0,0,1,1.76,9.3,25.71,25.71,0,0,1-.29,9.42,29.23,29.23,0,0,0-1.24-9.13,87.92,87.92,0,0,0-2.88-8.76c-1.12-2.87-2.25-5.73-3.52-8.54s-2.56-5.62-3.92-8.32l-3-6,6.09,3.07a43.91,43.91,0,0,1,9.81,6.93,86.23,86.23,0,0,1,8,8.53c2.49,3,4.77,6.12,7,9.31s4.23,6.42,6.12,9.9l-5.59,1.64a75.76,75.76,0,0,0-3.49-18.17,68.87,68.87,0,0,0-8.2-16.61A75,75,0,0,0,997,390a81,81,0,0,0-7.5-5.89A71.21,71.21,0,0,0,981.29,379.11Z" transform="translate(-106.66 -40.98)"/><path class="cls-6" d="M1071,1246.22a.92.92,0,0,1-1-.47,3.77,3.77,0,0,1-.48-1,13.93,13.93,0,0,1-.48-2.22c-.22-1.49-.32-3-.4-4.49-.13-3-.12-6-.07-9,.1-6,.43-12,.76-18,.74-12,1.65-23.88,2.64-35.79l3-35.72c1-11.9,2-23.8,2.78-35.7s1.63-23.81,2.2-35.71,1-23.81,1.14-35.72c.07-6,0-11.9-.12-17.85s-.39-11.9-.81-17.83c-.84-11.86-2.28-23.72-5.58-35.23,1.13,2.76,2.13,5.6,3,8.46s1.63,5.79,2.31,8.72c1.36,5.85,2.34,11.79,3.17,17.75a348.68,348.68,0,0,1,2.68,35.94c.39,12,.18,24-.14,36s-1.09,24-1.9,35.9-1.93,23.88-3.12,35.79-2.48,23.81-4,35.68l-4.36,35.59c-.75,5.93-1.44,11.86-2,17.79-.3,3-.55,5.94-.68,8.91-.07,1.49-.12,3,0,4.46a13.46,13.46,0,0,0,.24,2.2,4.13,4.13,0,0,0,.36,1A.86.86,0,0,0,1071,1246.22Z" transform="translate(-106.66 -40.98)"/><path class="cls-1" d="M685.12,1159.6l-26.8,39s-34.72,46.29-25.59,56,35.33-28,35.33-28" transform="translate(-106.66 -40.98)"/><path class="cls-7" d="M979.12,632.12s-26.7-8.34-53.4,30S943,782.65,990.8,807.35c51.74,26.7,88.41,70.83,88.41,70.83s54.28-104.21,55.11-150.94,0-111-43.39-125.16-59.24,10.85-59.24,10.85S1007.49,629.62,979.12,632.12Z" transform="translate(-106.66 -40.98)"/><path class="cls-8" d="M958.13,558.48a21.76,21.76,0,0,0,16.55.46c9-3.44,10.58-13.76,10.58-13.76" transform="translate(-106.66 -40.98)"/><circle class="cls-8" cx="839.35" cy="494.15" r="8.57"/><circle class="cls-8" cx="873.2" cy="481.99" r="8.57"/><path class="cls-8" d="M954.58,535.14s5.4-11.31,18.95-7.2" transform="translate(-106.66 -40.98)"/><path class="cls-9" d="M965.44,155.1c4.22-17.88-34.22-64.33-94.73-61.82s-25.51,33-52.12,57.13-55.88,60-16.63,69.89c45.87,11.61,53.44-49.89,101.5-35.68S961.23,173,965.44,155.1Z" transform="translate(-106.66 -40.98)"/><path class="cls-4" d="M951.23,234.48c-15-29.69-59-47.34-107.13.51s-161.15,61.77-196,79.79-69.65,59.11-21.91,86.41,91.22-60.7,132-82.47,95.24-47.82,140.7-32.41S966.25,264.16,951.23,234.48Z" transform="translate(-106.66 -40.98)"/><path class="cls-9" d="M499.52,702.81c66.12.79,57.92,53.53,75.11,90.81S526.07,871,503.74,898.28s-7.48,64.34-38,75.66-92.26-17.84-66.42-79.48-3.52-95.68,27.05-144.37C450.66,711.42,484.91,702.64,499.52,702.81Z" transform="translate(-106.66 -40.98)"/><path class="cls-3" d="M522.72,522.37c-15.55-1.85-97.07-12.7-161.39,40.27s-44.93,76.55-69,100.61S235.69,638.9,196.25,691s92.42,92.23,167.39,49.87S453.17,577.83,614,599.35c100.82,13.5,105.53-101.83,33.2-109.7C612.17,485.84,592.4,530.67,522.72,522.37Z" transform="translate(-106.66 -40.98)"/><circle class="cls-3" cx="508.08" cy="641.9" r="20.83"/><circle class="cls-10" cx="393.34" cy="408.09" r="15.59"/><circle class="cls-10" cx="599.28" cy="376.04" r="15.59"/><circle class="cls-10" cx="447.29" cy="869.2" r="15.59"/><circle class="cls-10" cx="308.13" cy="972.77" r="15.59"/><circle class="cls-2" cx="242.73" cy="987.05" r="15.59"/><circle class="cls-2" cx="573.95" cy="832.11" r="15.59"/><circle class="cls-10" cx="511.98" cy="863.47" r="15.59"/><circle class="cls-10" cx="200.75" cy="1059.03" r="15.59"/><circle class="cls-10" cx="174.85" cy="922.84" r="15.59"/><circle class="cls-10" cx="508.77" cy="917.91" r="15.59"/><circle class="cls-10" cx="425.5" cy="925.66" r="15.59"/><circle class="cls-10" cx="239.21" cy="904.5" r="15.59"/><circle class="cls-10" cx="175.25" cy="850.9" r="15.59"/><circle class="cls-10" cx="238.9" cy="840.8" r="15.59"/><circle class="cls-10" cx="172.37" cy="760.27" r="15.59"/><circle class="cls-10" cx="117.62" cy="581.68" r="15.59"/><circle class="cls-3" cx="168.99" cy="564.29" r="15.59"/><circle class="cls-10" cx="215.23" cy="500.37" r="15.59"/><circle class="cls-10" cx="85.53" cy="530.39" r="15.59"/><circle class="cls-5" cx="474.15" cy="337.44" r="15.59"/><circle class="cls-10" cx="484.23" cy="396.19" r="15.59"/><circle class="cls-10" cx="403.12" cy="342.68" r="15.59"/><circle class="cls-10" cx="471.23" cy="239.46" r="15.59"/><circle class="cls-3" cx="574.01" cy="214.47" r="15.59"/><circle class="cls-10" cx="512.59" cy="178.01" r="15.59"/><circle class="cls-10" cx="297.45" cy="274.58" r="15.59"/><circle class="cls-2" cx="279.88" cy="186.47" r="15.59"/><circle class="cls-10" cx="218.93" cy="248.01" r="15.59"/><circle class="cls-10" cx="672.54" cy="326.69" r="15.59"/><circle class="cls-10" cx="633.83" cy="429.78" r="15.59"/><circle class="cls-10" cx="573.38" cy="596.66" r="15.59"/><circle class="cls-10" cx="450.95" cy="609.49" r="15.59"/><circle class="cls-10" cx="505.33" cy="712.13" r="15.59"/><circle class="cls-10" cx="515.53" cy="795.38" r="15.59"/><circle class="cls-10" cx="622.73" cy="155.43" r="15.59"/><circle class="cls-10" cx="674.13" cy="99.94" r="15.59"/><circle class="cls-10" cx="661.57" cy="36.31" r="15.59"/><circle class="cls-10" cx="472.85" cy="20.06" r="15.59"/><circle class="cls-10" cx="885.15" cy="150.01" r="15.59"/><circle class="cls-10" cx="906.9" cy="205.54" r="15.59"/><circle class="cls-10" cx="780.31" cy="18.59" r="15.59"/><circle class="cls-10" cx="884.97" cy="71.58" r="15.59"/><circle class="cls-5" cx="22.27" cy="752.26" r="22.27"/><circle class="cls-11" cx="246.7" cy="773.17" r="22.27"/><path class="cls-12" d="M462.75,407.47c-22.48-88.72-88.69-12.16-120.48-47.58C294.4,306.55,217,285.58,207.4,368.69c-5.81,50-53.4,116.36-4.72,157.07s81,7.76,140.9-32.11S477.06,464,462.75,407.47Z" transform="translate(-106.66 -40.98)"/><path class="cls-5" d="M741.85,112.14c.28,33.7-47.08,69.77-111.08,68-88-2.37-77.35,82.51-117.29,126.64s-82.77,16.07-66.5-52.16S376.86,200.57,432.28,129C505.4,34.53,549.43,145.26,616.7,95.2,702.7,31.22,741.58,78.45,741.85,112.14Z" transform="translate(-106.66 -40.98)"/><path class="cls-13" d="M744.23,806.1c39.21-16.22,62.8-55.79,57.25-127.9s33.6-120.12-10.36-125.6c-30-3.74-63.25,49.69-53.21,69.31s4.49,66.86-36.64,92.74C655.63,743.37,689.29,828.83,744.23,806.1Z" transform="translate(-106.66 -40.98)"/><path class="cls-4" d="M148.88,853.77c-16.2,20.72-4.74,35.54,19.93,69.72s-21.55,104.23,76.62,141.73c38.45,14.69,66.15-.31,51.24-44.34s-67.49-24.18-62.78-63.4S244.44,857,212.53,844.89,167.14,830.4,148.88,853.77Z" transform="translate(-106.66 -40.98)"/><path class="cls-14" d="M382.27,1226.51c23.53,70.46-.57,99.44,86.6,96.94s91.11-101,171.49-191.31c84.33-94.73-50.42-151-92.15-122.73s-20.83,75.52-57.66,90.89-51.88-14.4-109.26,16S372.74,1198,382.27,1226.51Z" transform="translate(-106.66 -40.98)"/><path class="cls-1" d="M1452,278.81s18.28,14.17,12.8,31.07-16.45,15.53-16.45,15.53" transform="translate(-106.66 -40.98)"/><path class="cls-1" d="M1432.81,274.25s18.73-14.17,19.18,4.56-2.28,60.31-11.87,48.43-11.88-20.1-11.88-20.1" transform="translate(-106.66 -40.98)"/><path class="cls-1" d="M1410.88,249.58s14.62-11,20.1,13.7-.91,49.8-8.22,53-13.71-6.85-12.8-31.06" transform="translate(-106.66 -40.98)"/><path class="cls-1" d="M1379.16,247.27s16-24.22,27.41-10.05,8.22,68.07-2.74,58.47-15.53-42-15.53-42" transform="translate(-106.66 -40.98)"/></svg>