<?xml version="1.0" encoding="utf-8"?>
<!-- Generator: Adobe Illustrator 24.1.0, SVG Export Plug-In . SVG Version: 6.00 Build 0)  -->
<svg version="1.1" id="Layer_1" xmlns="http://www.w3.org/2000/svg" xmlns:xlink="http://www.w3.org/1999/xlink" x="0px" y="0px"
	 viewBox="0 0 1891 1862.9" style="enable-background:new 0 0 1891 1862.9;" xml:space="preserve">
<style type="text/css">
	.st0{fill:#FFFFFF;}
	.st1{fill:#231F20;}
	.st2{fill:#FFFFFF;stroke:#231F20;stroke-width:6;stroke-miterlimit:10;}
	.st3{fill:none;stroke:#231F20;stroke-width:6;stroke-miterlimit:10;}
	.st4{fill:#F2665B;}
	.st5{fill:#FED800;}
	.st6{fill:#426FB6;}
	.st7{fill:none;stroke:#231F20;stroke-width:15;stroke-miterlimit:10;}
	.st8{opacity:0.63;fill:#FED800;enable-background:new    ;}
	.st9{fill:#FFF2A9;}
	.st10{fill:#F6B5C5;}
	.st11{fill:none;stroke:#426FB6;stroke-width:15;stroke-miterlimit:10;}
	.st12{fill:none;stroke:#231F20;stroke-width:3;stroke-miterlimit:10;}
	.st13{fill:none;}
	.st14{fill:#F6D00F;}
</style>
<g>
	<polygon class="st0" points="1416.8,1797.2 1288.4,1495.4 1240,1228.1 1319.5,1214.9 1433.8,1799.7 	"/>
	<path class="st1" d="M1317.1,1218.3l112.9,577.8l-11.1-1.6l-127.6-299.9l-47.8-264L1317.1,1218.3 M1321.8,1211.4l-85.3,14.2
		l49,270.7l129.2,303.7l22.8,3.3L1321.8,1211.4L1321.8,1211.4z"/>
</g>
<g>
	<path class="st0" d="M1427.7,1802.2l-50.1-290.9l-59-298l138.3,16.3l-19.8,228.7l59.9,116.9c-2.9,70-10.4,203.8-18.9,227.1
		L1427.7,1802.2z"/>
	<path class="st1" d="M1322.2,1216.7l131.3,15.4l-19.4,225l-0.2,1.7l0.8,1.5l59.1,115.4c-0.4,9.1-2.4,56.3-5.6,105.1
		c-5.3,80.9-9.7,108.9-12.4,118.3h-45.6l-49.7-288.4v-0.1v-0.1L1322.2,1216.7 M1314.8,1209.8l59.8,302l50.6,293.4h54.8
		c11.4-22.8,20-230.8,20-230.8l-59.8-116.8l19.9-230.8L1314.8,1209.8L1314.8,1209.8z"/>
</g>
<g>
	<path class="st0" d="M1242.4,408l-2-0.4c-46.3-9-76.5-53.7-67.5-100c9-46.3,53.7-76.5,100-67.5c46.3,9,76.5,53.7,67.5,100
		c-4.6,23.8-19.2,44.5-40,57l-2,1.2l15.5,48.5l-59.4,20.8L1242.4,408z"/>
	<path class="st1" d="M1256.7,241.5c45.5,0,82.3,36.8,82.4,82.3c0,29-15.2,55.9-40.1,70.7l-4.1,2.4l1.4,4.5l13.9,43.5l-53.4,18.7
		l-11.1-54.3l-0.8-3.9l-4-0.8c-44.6-8.7-73.8-51.9-65.1-96.5C1183.3,269.5,1217.2,241.5,1256.7,241.5 M1256.6,235.5
		c-48.8,0.1-88.3,39.7-88.2,88.5c0.1,42.2,30,78.5,71.4,86.5l12.5,61.1l65.4-22.9l-15.7-49c41.9-25,55.5-79.3,30.5-121.1
		C1316.5,251.9,1287.7,235.6,1256.6,235.5L1256.6,235.5z"/>
</g>
<path class="st2" d="M851.6,85.4c0,0-22.9,2.2-34-6.5"/>
<line class="st3" x1="825.2" y1="5.6" x2="788.2" y2="6.2"/>
<path class="st4" d="M1217.5,683.3l144.6-17.4c0,0,85.7,166.8,126,286.5c55.8,165.6,29.2,303.5,29.2,303.5s-113.5-31.2-204.2-25.2
	s-144.6,23.7-144.6,23.7s-24.6-106.1-8.7-265.2C1176.9,817.8,1217.5,683.3,1217.5,683.3z"/>
<polygon class="st5" points="1343.7,1719.9 1203,1736.9 1229.7,1791.9 1381.7,1793.5 "/>
<polygon class="st5" points="1275,1537.8 1139.1,1565.3 1166.6,1626.8 1314.6,1607.4 "/>
<polygon class="st5" points="1200.5,1374.4 1064.6,1401.9 1092.1,1463.4 1240.2,1444 "/>
<polygon class="st5" points="1126.1,1196.4 990.2,1224 1017.7,1285.4 1165.7,1266 "/>
<polygon class="st5" points="1067.9,1036.3 932,1063.8 959.5,1125.3 1107.5,1105.8 "/>
<polygon class="st5" points="1001.5,881 865.6,908.5 893.1,969.9 1041.2,950.5 "/>
<path class="st1" d="M1177.6,298.2c0,0-17.7-52.2,32.5-78.9s111.6-24.4,155.2,60c38.9,75.4,61.3,140.4,176.7,181
	s284.8,32.4,326.5,140.6c30.8,79.8-17.5,155.5-104.7,145.3c0,0,168.8,53.4,117.5,170.9c-36.4,83.4-163.5,93-200.8-27.8
	c0,0-61.6,79.1-169.7,3.8c-107.3-74.8-61.8-217.6-148.4-324.5c-46.8-57.8-59.4-135-61-170.8c16.2-16.7,14.7-45.7,14.7-45.7
	s-92.5-5-108.1-69.5C1208.1,282.7,1190.9,245.4,1177.6,298.2z"/>
<polygon class="st5" points="1026.6,797.4 1430.4,1801.7 1366.3,1801.7 962.5,795.3 "/>
<polygon class="st5" points="849.3,797.4 1253.1,1801.7 1208.2,1801.7 804.4,795.3 "/>
<circle class="st6" cx="363.6" cy="1676" r="165.3"/>
<g>
	<polyline class="st7" points="565,1149.4 603,1116.5 298.9,1120.6 185.2,1150.1 	"/>
	<path class="st1" d="M560.1,1155.3v399.1h-365v-399.1H560.1 M575.1,1140.3h-395v429.1h395V1140.3z"/>
	<polyline class="st7" points="569.7,1560.2 616.2,1512.6 620.1,1106.9 	"/>
</g>
<circle class="st4" cx="773.5" cy="64.1" r="64.1"/>
<polygon class="st8" points="639.9,30.4 883.5,162.9 757.4,496.2 509.5,357.3 "/>
<polygon class="st9" points="639.9,30.4 488.2,107.3 415.5,368 509.5,357.3 "/>
<polygon class="st1" points="757.4,496.2 612.1,481.2 415.5,368 509.5,357.3 "/>
<circle class="st10" cx="455.1" cy="930.2" r="207.6"/>
<polygon class="st11" points="592.5,449.4 669.6,828.1 342.9,726.5 "/>
<polygon class="st9" points="1026.6,795.3 804.4,795.3 601.4,1793.1 865.3,1793.1 "/>
<path class="st10" d="M1130.7,712.5l346.6-37.2c-14.9-138.5-104.5-242.4-200.2-232.1S1115.8,574.1,1130.7,712.5z"/>
<path class="st2" d="M867,24c0,0-22.7-24.2-38.8-19.4s-21.8,14.8-31.3,21s-18.3,26.1-7.5,23.2s16.7-8.6,16.7-8.6"/>
<path class="st12" d="M1194.2,348.8c0,0-9.8,13.7-21.4,0.6"/>
<path class="st12" d="M1187.9,310.2c-0.1,7.6,5.9,13.9,13.5,14c7.6,0.1,13.9-5.9,14-13.5c0.1-7.6-5.9-13.9-13.5-14
	c-6.6-0.1-12.4,4.5-13.7,11L1187.9,310.2z"/>
<path class="st12" d="M1172.8,303.9c0,0,7.5-5.7,16,1.9"/>
<path class="st0" d="M1318.6,1224c-4.7-15.6-8.9-31.4-12.8-47.2c-2-7.9-3.8-15.8-5.8-23.8l-5.4-23.8c-3.5-15.9-6.8-31.9-9.9-47.9
	c-3.1-16-6-32-8.2-48.2c4.7,15.6,8.9,31.4,12.8,47.2s7.7,31.7,11.2,47.6l5.1,23.9c1.6,8,3.3,16,4.8,24
	C1313.5,1191.7,1316.3,1207.8,1318.6,1224z"/>
<path class="st0" d="M1324.8,264.4c5,3.6,9.6,7.7,13.7,12.2c4.2,4.5,8,9.4,11.3,14.5c3.4,5.2,6.3,10.7,8.4,16.5
	c2.2,5.8,3.6,12.1,3.1,18.3c-2-5.6-4.5-11.1-7.4-16.3c-2.8-5.2-6-10.2-9.2-15.2s-6.6-9.9-10-14.9S1328.1,269.6,1324.8,264.4z"/>
<path class="st0" d="M1334.5,306.5c1.5,1.6,2.8,3.3,4,5.1c1.2,1.8,2.2,3.8,3.1,5.8c1.8,4.1,2.8,8.4,3,12.9l0.2,3.6l-2.9-2.5l-9-7.7
	l-8.9-7.8l4.1-1.8c0.1,1.2,0.2,2.6,0.4,3.9s0.3,2.6,0.6,3.9c0.4,2.6,1.1,5.1,1.9,7.6c0.8,2.4,1.8,4.6,3.1,6.7
	c1.1,1.9,2.8,3.4,4.7,4.5l-2,5.5c-2.3-0.6-4.4-1.3-6.5-2s-4.2-1.5-6.3-2.5c-4.1-1.8-8.1-3.8-12-6c-3.9-2.2-7.6-4.7-11.2-7.4
	c-7.2-5.3-13.7-11.5-19.3-18.5c-1.4-1.8-2.7-3.5-4-5.4c-0.6-0.9-1.3-1.8-1.8-2.8l-1.7-2.9c-4.5-7.6-7.8-15.9-9.8-24.5
	c1.7,4,3.5,8,5.6,11.8c1,1.9,2.1,3.8,3.2,5.6c0.5,0.9,1.2,1.8,1.8,2.7s1.2,1.8,1.8,2.7c2.5,3.5,5.2,6.8,8.1,10
	c2.9,3.2,6,6.1,9.2,8.9c6.5,5.6,13.5,10.5,21,14.5c3.8,2,7.6,3.9,11.5,5.6c2,0.8,3.9,1.6,5.9,2.4s4,1.4,5.9,2l-2,5.5
	c-2.9-1.5-5.3-3.8-7-6.6c-1.5-2.6-2.7-5.3-3.5-8.2c-1.6-5.5-2.4-11.2-2.4-16.9v-5.9l4.1,4.1l8.4,8.3l8.3,8.5l-2.6,1.1
	c0.1-2.1,0-4.1-0.3-6.2c-0.1-1-0.3-2-0.5-3.1s-0.5-2-0.8-3c-0.6-2-1.4-4-2.3-5.9C1336.7,310.1,1335.7,308.2,1334.5,306.5z"/>
<path class="st0" d="M1547.9,513.7c12.7-0.8,25.4-1.2,38.1-1s25.4,0.6,38.1,1.6c25.4,1.9,50.7,5.5,75.3,12.8l4.6,1.4l4.6,1.6
	c3,1,6,2.2,9,3.4c1.5,0.6,3,1.2,4.4,1.9l4.4,2c1.4,0.7,2.9,1.5,4.3,2.2s2.9,1.4,4.3,2.3c2.8,1.7,5.6,3.2,8.2,5.2
	c1.3,1,2.7,1.8,4,2.8l3.8,3.1c1.3,1,2.4,2.1,3.6,3.2l3.6,3.2c2.4,2.1,4.7,4.3,7,6.5c9.4,8.7,18.3,17.9,26.7,27.6
	c4.1,4.9,8.2,9.9,11.9,15.3c0.9,1.3,1.8,2.7,2.7,4.1s1.7,2.8,2.5,4.2l1.2,2.1c0.4,0.7,0.7,1.5,1.1,2.3s0.7,1.6,1,2.4l0.4,1.3
	c0.1,0.2,0.1,0.5,0.2,0.7l0.1,0.4c0,0.1,0.1,0.3,0.1,0.5l1.2,7.4l-5.9-4.8c-1.7-1.4-3.6-2.7-5.5-4s-3.9-2.5-5.9-3.6
	c-4-2.3-8.2-4.1-12.5-5.7c-4.3-1.5-8.7-2.5-13.2-2.9c-4.4-0.4-8.9-0.2-13.3,0.7l1.3-5.1l47.5,39.9l6.8,5.7l-8.9-0.5
	c-9.6-0.5-18.9-1.5-28.4-2.6s-18.8-2.7-28.1-4.6c-9.4-1.9-18.6-4.4-27.6-7.6c-4.6-1.6-9.1-3.6-13.4-5.8c-4.4-2.3-8.5-5.1-12.2-8.5
	l3.8-3.8c6.6,6.8,13.8,13.4,21.1,19.7c7.3,6.3,15,12.1,22.9,17.6c4,2.7,8.1,5.3,12.2,7.7c4.1,2.4,8.4,4.6,12.8,6.5
	c4.3,2,8.8,3.6,13.4,4.8c4.5,1.2,9.2,1.9,13.9,2h6.8l-5.7,3.5c-2.7,1.7-5.5,3.2-8.4,4.5c-2.9,1.3-5.8,2.5-8.7,3.5
	c-5.9,2.1-12,3.7-18.1,5c-12.3,2.4-24.8,3-37.3,1.8c-12.4-1.2-24.6-3.8-36.3-8c-11.7-4.1-22.9-9.5-33.5-15.9
	c10.8,6,22.1,10.9,33.9,14.8c11.7,3.8,23.8,6.2,36.1,7c12.2,0.8,24.5-0.1,36.5-2.7c6-1.3,11.8-3,17.5-5.2c2.8-1.1,5.7-2.3,8.4-3.6
	c2.7-1.3,5.3-2.7,7.8-4.3l1.1,3.6c-5,0-10.1-0.6-14.9-1.9c-4.8-1.2-9.6-2.8-14.1-4.8c-4.5-2-9-4.1-13.3-6.5c-4.3-2.4-8.5-5-12.6-7.7
	c-8.2-5.4-16-11.3-23.5-17.7c-7.5-6.3-14.7-12.8-21.7-19.9l3.8-3.8c3.3,3,7,5.5,11,7.5c4.1,2.1,8.3,3.9,12.6,5.4
	c4.3,1.6,8.8,2.8,13.3,4s9,2.2,13.6,3.2c9.1,1.9,18.4,3.3,27.7,4.4s18.7,2,27.9,2.5l-2,5.2l-47.5-39.9l-4.6-3.9l5.9-1.2
	c5-1,10.1-1.3,15.1-0.8c5,0.5,9.8,1.6,14.6,3.3c4.6,1.6,9.1,3.7,13.4,6.1c2.1,1.2,4.2,2.5,6.3,3.9c2.1,1.4,4.1,2.9,6,4.5l-4.7,2.5
	l-0.1-0.3c0-0.2-0.1-0.3-0.1-0.5l-0.3-1c-0.3-0.7-0.5-1.3-0.8-2s-0.6-1.4-0.9-2l-1-2c-0.7-1.3-1.5-2.7-2.3-4s-1.7-2.6-2.5-3.9
	c-3.5-5.2-7.4-10-11.4-14.9c-8.2-9.6-16.9-18.7-26.1-27.4c-2.2-2.2-4.6-4.4-6.9-6.5l-3.5-3.2c-1.2-1.1-2.3-2.2-3.5-3.1l-3.6-3
	c-1.2-1-2.5-1.8-3.8-2.7c-2.5-1.9-5.2-3.4-7.8-5.1c-1.3-0.9-2.7-1.5-4.1-2.3s-2.8-1.5-4.1-2.2l-4.3-2c-1.4-0.7-2.8-1.3-4.3-1.9
	c-2.9-1.2-5.8-2.4-8.8-3.5l-4.4-1.6l-4.5-1.5c-24-7.7-49.2-11.7-74.3-14.3c-12.6-1.3-25.3-2.1-37.9-2.6S1560.6,513.3,1547.9,513.7z"
	/>
<path class="st0" d="M1797.6,799.2c7.7,3.3,14.8,7.9,21,13.6c6.3,5.6,11.7,12.2,16.1,19.4c4.4,7.3,7.7,15.2,9.8,23.4
	c2.1,8.3,3.2,16.7,3.3,25.3l0.1,8.2l-4.8-6.7l-13.1-18.5l4.9-2.6c0.5,1.4,0.9,2.6,1.3,4s0.8,2.6,1.1,3.9c0.7,2.6,1.2,5.3,1.5,8
	c0.8,5.4,1.1,10.8,0.8,16.2c-0.2,5.4-1.1,10.8-2.5,16.1c-1.5,5.3-3.6,10.3-6.4,15.1l-3.5,6.1l-1.9-6.8c-0.6-2-1.2-4-2-5.9
	c-0.8-1.9-1.7-3.8-2.7-5.6c-1-1.8-2.1-3.4-3.4-5c-1.2-1.4-2.6-2.7-4.2-3.7l4.2-2.2c-0.3,3.2-0.6,6.5-0.7,9.8s-0.2,6.6-0.2,9.9
	s0.2,6.6,0.5,9.8c0.3,3.2,0.7,6.5,1.4,9.7l1.3,6.6l-4.9-4.3c-4.5-4-8.6-8.5-12.2-13.3c-3.7-4.7-6.9-9.8-9.6-15.1
	c-1.4-2.7-2.6-5.4-3.7-8.2c-0.6-1.4-1-2.8-1.5-4.2s-0.9-2.9-1.2-4.3c-1.5-5.8-2.1-11.7-1.9-17.6c0.4,5.9,1.5,11.6,3.4,17.2
	c0.9,2.8,2,5.5,3.2,8.1c1.2,2.6,2.5,5.2,4,7.7c3,5,6.3,9.7,10.1,14.1c1.9,2.2,3.8,4.3,5.9,6.4c2,2,4.1,4,6.3,5.8l-3.6,2.2
	c-0.8-3.4-1.4-6.7-1.9-10.2c-0.4-3.4-0.7-6.8-0.8-10.2s-0.2-6.8-0.1-10.2s0.2-6.8,0.5-10.2l0.4-4.3l3.8,2.2c2.2,1.3,4.2,2.9,5.8,4.8
	c1.5,1.8,2.9,3.8,4.1,5.9c1.1,2,2.1,4.1,3,6.2c0.9,2.1,1.7,4.3,2.3,6.6l-5.4-0.7c2.5-4.3,4.4-8.9,5.7-13.8c1.3-4.8,2.2-9.8,2.4-14.8
	c0.2-5,0-10.1-0.7-15.1c-0.4-2.5-0.8-5-1.4-7.4c-0.3-1.2-0.6-2.5-0.9-3.7s-0.7-2.5-1.1-3.5l-7.6-21l12.5,18.4l12.8,18.7l-4.7,1.5
	c0.1-8.1-0.7-16.3-2.4-24.2c-1.8-8-4.6-15.6-8.5-22.8c-5.9-10.9-14-20.4-23.8-27.9C1804.7,803.4,1801.2,801.2,1797.6,799.2z"/>
<path class="st0" d="M1798.4,951.3c-4.1-2-8.1-4.4-11.8-7.2c-3.7-2.7-7.3-5.7-10.6-8.9c-6.7-6.4-12.5-13.8-17.3-21.8
	c-4.8-8-8.3-16.8-10.3-25.9c-0.1-0.6-0.3-1.1-0.4-1.7l-0.3-1.7c-0.2-1.2-0.4-2.3-0.6-3.4c-0.2-2.3-0.5-4.6-0.6-6.9
	c-0.2-4.6,0.1-9.2,0.8-13.8c0.6,4.6,1.1,9,2.1,13.4c0.4,2.2,1,4.4,1.5,6.5l0.9,3.2l0.5,1.6l0.5,1.6c2.8,8.4,6.5,16.5,11,24.1
	c4.6,7.6,9.8,14.9,15.6,21.6C1785.3,938.8,1791.6,945.3,1798.4,951.3z"/>
<path class="st0" d="M1622,753.9c-0.7,10.1-0.8,20.3-0.3,30.5c0.2,5.1,0.7,10.1,1.2,15.1s1.4,10,2.4,14.9
	c2.1,9.8,5.2,19.4,10.2,27.8c2.5,4.2,5.5,7.9,9.1,11.2c3.6,3.1,7.7,5.5,12.2,7.1l15.6,5.4H1656c-2,0-3.7-0.1-5.5-0.3
	s-3.6-0.4-5.3-0.6c-3.5-0.6-7-1.4-10.5-2.3c-7-2-13.6-5-19.7-8.9c-6.1-4-11.4-9.2-15.5-15.3c-4.1-6.1-7-12.9-8.6-20l5.7-0.9
	c0.2,3,0.7,6.1,1.2,9.1s1.2,6.1,2,9.1c1.5,6,3.6,11.8,6.4,17.3c1.3,2.7,2.9,5.3,4.7,7.8c1.7,2.4,3.7,4.7,6,6.7
	c2.2,2,4.7,3.6,7.4,4.9c2.7,1.2,5.6,2.1,8.5,2.6l10.4,1.8l-10.2,1.9c-2.5,0.4-5,0.7-7.5,0.8c-2.5,0.1-5,0.1-7.5,0
	c-5-0.3-10-1.2-14.7-2.8c-4.8-1.6-9.1-4.3-12.8-7.7c-3.6-3.4-6.3-7.7-8-12.3c2.1,4.4,5.1,8.3,8.8,11.4c3.7,3,8,5.2,12.7,6.5
	c4.6,1.3,9.4,1.9,14.2,1.9c2.4,0,4.8-0.1,7.2-0.3c2.4-0.2,4.7-0.6,7-1.1l0.2,3.6c-6.7-0.7-13.1-3.3-18.3-7.7
	c-2.6-2.1-4.9-4.5-6.9-7.2c-2-2.6-3.8-5.4-5.4-8.3c-3-5.8-5.4-11.9-7.1-18.2c-0.9-3.1-1.6-6.3-2.2-9.5c-0.6-3.2-1.1-6.5-1.4-9.7
	l5.7-0.9c1.5,6.4,4.2,12.5,7.9,18c3.7,5.4,8.5,10,13.9,13.7c5.5,3.7,11.6,6.5,18,8.3c3.2,1,6.5,1.7,9.8,2.2c1.7,0.3,3.3,0.5,5,0.7
	s3.4,0.3,4.9,0.3l-0.9,5.4c-5.1-1.9-9.8-4.7-13.9-8.4c-3.9-3.7-7.2-7.9-9.8-12.6c-2.5-4.6-4.6-9.4-6.1-14.5
	c-1.6-4.9-2.8-10-3.6-15.1c-1.6-10.1-2.4-20.4-2.2-30.7C1619.6,774.3,1620.4,764.1,1622,753.9z"/>
<path class="st0" d="M1595.3,892.3c-5.2-0.3-10.4-1.3-15.4-2.7c-5.1-1.4-10-3.3-14.8-5.6c-4.8-2.3-9.3-5.1-13.6-8.2
	c-4.3-3.2-8.3-6.7-11.8-10.7c-3.6-4-6.8-8.2-9.6-12.8l-1.1-1.7l-1-1.8c-0.6-1.2-1.3-2.3-1.9-3.5c-1.1-2.4-2.3-4.8-3.2-7.3
	c-3.9-9.9-6.4-20.4-7.5-31l5.7,0.7c-1.1,3.3-2,6.8-2.8,10.2c-0.8,3.4-1.4,6.9-1.8,10.5c-0.5,3.4-0.7,6.9-0.5,10.4
	c0.1,3.3,0.7,6.6,1.9,9.7l5.9,14.3l-10.6-11.1c-1-1-1.9-2-2.7-3s-1.7-2-2.5-3l-1.2-1.5l-1.2-1.6c-0.8-1.1-1.6-2.1-2.3-3.2
	c-1.5-2.2-3-4.3-4.4-6.5l-2.1-3.3c-0.7-1.1-1.3-2.2-2-3.4c-1.3-2.3-2.6-4.5-3.8-6.8l-1.8-3.5c-0.6-1.2-1.2-2.3-1.7-3.5
	c-1.1-2.4-2.2-4.7-3.2-7.1l-2.9-7.2c-1-2.4-1.7-4.9-2.6-7.4l-1.2-3.7c-0.4-1.2-0.7-2.5-1.1-3.8l-2-7.5c-0.6-2.5-1.1-5.1-1.6-7.6
	c-1.2-5-1.7-10.2-2.5-15.3l-0.3-1.9c-0.1-0.6-0.1-1.3-0.2-1.9l-0.3-3.9l-0.5-7.7l1.3,7.6l0.6,3.8c0.1,0.6,0.2,1.3,0.3,1.9l0.4,1.9
	l1.7,7.5c0.5,2.5,1.2,5,1.9,7.5s1.3,4.9,2.1,7.4l2.4,7.3c0.4,1.2,0.8,2.4,1.2,3.6l1.4,3.6l1.4,3.6l0.7,1.8c0.2,0.6,0.5,1.2,0.8,1.8
	l3.1,7c1.1,2.3,2.3,4.5,3.4,6.8s2.4,4.5,3.6,6.7s2.5,4.4,3.8,6.6c0.7,1.1,1.3,2.2,2,3.2l2.1,3.2c1.4,2.1,2.9,4.1,4.4,6.2
	c0.7,1,1.5,2,2.3,3l1.2,1.5l1.2,1.5c0.8,1,1.6,1.9,2.4,2.9s1.7,1.9,2.5,2.7l-4.7,3.2c-1.5-3.7-2.3-7.7-2.4-11.7
	c-0.2-3.8,0-7.6,0.5-11.4c0.5-3.7,1.1-7.4,2-11.1c0.9-3.7,1.8-7.2,3.1-10.8l4.3-12.6l1.4,13.2c1,10.1,3.2,20.1,6.6,29.7
	c0.8,2.4,1.9,4.7,2.9,7c0.5,1.2,1.1,2.3,1.7,3.4l0.8,1.7l0.9,1.7c2.5,4.4,5.3,8.6,8.6,12.5c6.5,7.9,14.5,14.5,23.4,19.5
	c4.5,2.6,9.2,4.7,14,6.5c2.4,0.9,4.9,1.7,7.4,2.4C1590.2,891.3,1592.8,891.9,1595.3,892.3z"/>
<path class="st2" d="M849.4,32c0,0-8.6-7-15.6-9.2s-13.5-1.1-20.5,7s-16.5,20-10.2,23.2s25.9-10.2,25.9-10.2s14.3,8.9,22.7,42.6
	s40.4,41.1,40.4,41.1s63,150.6,81.2,224.3s23.5,87.4,30,101.3S1252.3,593,1252.3,593s50.2,25.9,71.3-15.6
	c22.6-44.3-19.2-68.9-19.2-68.9c-173.1-73.7-236.6-106.3-236.6-106.3s-25.6-75.8-48.1-121.8c-32-65.7-61.4-117.5-82.8-146.4
	c-9.2-12.4-13.2-27-22.4-48.1c-4.3-10-21.1-61.8-47.2-73.4s-34-8.1-34-8.1"/>
<path class="st13" d="M3044.9,520.8c86.6-155.4,41.7-173-129.7-186.9s-70.6,124.6-110.4,155.2s-221.6,30.1-283.5-14.1
	s-136.3,116.9,29.1,151.1S2958.2,676.3,3044.9,520.8z"/>
<path class="st14" d="M52.2,1797.9c-363.8-161.8,1278.3-5.5,1698.3-18.1S416,1959.7,52.2,1797.9z"/>
</svg>
