<svg xmlns="http://www.w3.org/2000/svg" width="440" height="125.996" viewBox="0 0 440 125.996">
  <g id="Layer_2" data-name="Layer 2" transform="translate(10.001 -4.001)">
    <g id="Layer_1" data-name="Layer 1" transform="translate(-10.001 4.001)">
      <path id="Path_886" data-name="Path 886" d="M68.585,24.482,39.08,48.107V24.482H29.84v47.25h9.214V58.345l10.5-8.452c1.68,2.074,3.176,4.016,4.646,5.906,8.111,10.5,13.125,16.695,20.685,16.695a17.614,17.614,0,0,0,4.515-.656l.551-.131-.236-8.4-.84.184a8.032,8.032,0,0,1-1.785.262c-4.8,0-11.34-6.247-20.554-19.635L81.184,24.43Z" transform="translate(48.491 39.695)" fill="#6d3075"/>
      <path id="Path_887" data-name="Path 887" d="M73.324,28.507a18.217,18.217,0,0,0-13.912,5.827l-.289-5.066H50.67V65.152h9.214V45.937A12.049,12.049,0,0,1,71.171,37.3a6.274,6.274,0,0,1,6.746,6.326V65.152h9.056V42.525a13.125,13.125,0,0,0-13.65-14.017Z" transform="translate(82.339 46.301)" fill="#6d3075"/>
      <path id="Path_888" data-name="Path 888" d="M84.828,28.39c-11.5,0-18.9,7.586-18.9,19.32a18.034,18.034,0,0,0,19.11,19.031c11.524,0,18.979-7.586,18.979-19.32S96.3,28.39,84.828,28.39Zm.131,29.373c-5.88,0-9.712-4.121-9.712-10.5A9,9,0,0,1,84.8,37.42c5.985,0,9.844,4.121,9.844,10.5a9.056,9.056,0,0,1-9.686,9.844Z" transform="translate(107.085 46.13)" fill="#6d3075"/>
      <path id="Path_889" data-name="Path 889" d="M127.695,52.51l-.6,1.339c-3.649-9.581-6.589-17.43-9.24-24.6l-.184-.473H108.4l-.184.578c-2.992,8.085-6.09,16.432-9.187,24.648L98.5,52.562,96.562,47.5c-2.284-5.959-4.62-12.127-6.877-18.217l-.184-.472H79.92L94.489,64.69h9.03l9.529-23.756,3.544,8.794c1.916,4.777,3.885,9.712,5.854,14.516l.184.446h9.03l14.569-35.883h-9.476Z" transform="translate(129.869 46.764)" fill="#6d3075"/>
      <path id="Path_890" data-name="Path 890" d="M126.751,35a17.01,17.01,0,0,0-11.287,4.121V24.45H106.25V71.7h8.662v-.63c0-.84.184-1.68.263-2.625a15.12,15.12,0,0,0,10.815,4.2c8.741,0,17.614-6.51,17.614-18.979a19.451,19.451,0,0,0-5.066-14.044A16.432,16.432,0,0,0,126.751,35Zm-2.126,29.163c-5.722,0-9.161-3.885-9.161-10.5s3.255-9.975,8.951-9.975,9.844,4.121,9.844,10.5a9.03,9.03,0,0,1-9.66,9.975Z" transform="translate(172.655 39.727)" fill="#6d3075"/>
      <rect id="Rectangle_189" data-name="Rectangle 189" width="9.214" height="35.883" transform="translate(321.298 75.57)" fill="#6d3075"/>
      <path id="Path_891" data-name="Path 891" d="M127.836,22.676a5.722,5.722,0,0,0-6.037,6.116,5.828,5.828,0,0,0,6.09,5.959,6.024,6.024,0,1,0,0-12.049Z" transform="translate(197.898 36.829)" fill="#6d3075"/>
      <path id="Path_892" data-name="Path 892" d="M142.874,62.932c-4.042,0-5.25-1.391-5.25-6.536V24.45H128.41V56.658c0,10.5,4.095,15.461,12.495,15.461,1.312,0,3.412-.157,4.567-.289h.63V62.643l-.84.131A18.715,18.715,0,0,1,142.874,62.932Z" transform="translate(208.664 39.727)" fill="#6d3075"/>
      <path id="Path_893" data-name="Path 893" d="M142.44,22.675a5.722,5.722,0,0,0-6.011,6.116,5.828,5.828,0,0,0,6.09,5.959,6.024,6.024,0,0,0,0-12.049Z" transform="translate(221.672 36.83)" fill="#6d3075"/>
      <rect id="Rectangle_190" data-name="Rectangle 190" width="9.214" height="35.883" transform="translate(359.702 75.57)" fill="#6d3075"/>
      <path id="Path_894" data-name="Path 894" d="M161.249,62.932c-4.042,0-5.25-1.391-5.25-6.536V44.9h6.274V35.842H156V24.45H146.89V35.816h-4.83V44.9h4.83v11.76c0,10.5,4.095,15.461,12.495,15.461,1.312,0,3.412-.157,4.567-.289h.63V62.643l-.84.131A22.168,22.168,0,0,1,161.249,62.932Z" transform="translate(230.845 39.727)" fill="#6d3075"/>
      <path id="Path_895" data-name="Path 895" d="M185.807,28.839l-.21.367-5.539,10.5c-2.625,4.856-5.25,9.87-7.875,14.779-3.911-8.347-7.875-16.879-11.6-25.147l-.263-.577H150.58L167.432,63.3l-8.321,15.96h9.607L195.31,28.839Z" transform="translate(244.69 46.731)" fill="#6d3075"/>
      <path id="Path_896" data-name="Path 896" d="M67.515,33.755A33.757,33.757,0,1,0,29.742,67.276v40.346a4.016,4.016,0,0,0,8.006,0V67.276A33.81,33.81,0,0,0,67.515,33.755ZM37.774,59.165V50.371L48.615,39.53a4.016,4.016,0,0,0-5.67-5.67L37.7,39.11v-3.7l7.875-7.875a4.016,4.016,0,0,0-5.67-5.67l-9.109,9.109h0a4.016,4.016,0,0,0-.472.577l-.184.341h0L24.6,26.248a4.016,4.016,0,1,0-5.67,5.67L29.768,42.759V59.034a25.751,25.751,0,1,1,8.006,0Z" transform="translate(0.001 -0.001)" fill="#6d3075"/>
    </g>
  </g>
</svg>
