<svg xmlns="http://www.w3.org/2000/svg" viewBox="0 0 1329.37 1062.91">
  <defs>
    <style>
      .a {
        fill: #f2665b;
      }

      .b {
        fill: #f6b5c5;
      }

      .c {
        fill: #fff2a9;
      }

      .d, .h {
        fill: #fff;
      }

      .d, .i, .j {
        stroke: #231f20;
        stroke-miterlimit: 10;
      }

      .d, .i {
        stroke-width: 6px;
      }

      .e {
        fill: #231f20;
      }

      .f {
        fill: #426fb6;
      }

      .g {
        fill: #fed800;
      }

      .i, .j {
        fill: none;
      }

      .j {
        stroke-width: 3px;
      }
    </style>
  </defs>
  <g>
    <ellipse class="a" cx="596.49" cy="1017.61" rx="436.85" ry="45.3"/>
    <ellipse class="b" cx="279.16" cy="904.5" rx="279.16" ry="28.95"/>
    <ellipse class="c" cx="1045.01" cy="792.73" rx="207.97" ry="21.57"/>
  </g>
  <g>
    <g>
      <path class="d" d="M876.76,70a46.92,46.92,0,1,0-59.33,45.25v38.34L853,142.82l-6.1-29.11A46.93,46.93,0,0,0,876.76,70Z"/>
      <path class="e" d="M886.47,44.31l-50.7,12.22-11.15-16.9.72,25.53-15.82,2.52,7.91,47.59v38.34l-18.33,68L651.86,392s5.26-93,7.28-114.06l37.62-68.18-48.14,50.38s-8.09-48.81,8.09-80.09c0,0,84.54-129.26,146.43-171.51C849.82-23.33,886.47,44.31,886.47,44.31Z"/>
      <polygon class="d" points="850.87 717.21 823.37 825.61 731.95 951 705.25 936.44 752.17 815.9 779.68 802.96 784.53 712.35 850.87 717.21"/>
      <polygon class="d" points="882.15 718.82 928.53 798.64 919.9 839.63 1012.67 991.18 1035.32 979.32 981.39 784.62 940.4 682.15 882.15 718.82"/>
      <polygon class="f" points="863.82 121.25 800.17 156.85 669.66 736.08 1007.01 717.61 863.82 121.25"/>
      <rect class="b" x="579.63" y="547.86" width="289.34" height="155.87" transform="translate(322.63 -243.05) rotate(24.36)"/>
      <path class="g" d="M704,531.68s23.11-31.44,74-10.51c41.28,17,36.33,62.14,36.33,62.14l-19.48-8.15s4.55-23.74-21.29-37.29c-18.52-9.71-37.87-8.59-47.59,5.58Z"/>
      <path class="d" d="M824.29,160s-18.66-1.26-30.17,29.55c0,0-45.71,150.7-45.18,168.43s8.64,126.84,8.64,126.84,7.67,29.92-2.13,42.58c0,0-3.07,7.7,6.37,5,0,0,.53,10.6,8.46,4.82,0,0,1.37,12.6,10.46.6,0,0-1.08,14.41,5.62,7.45s9.39-17.24,9.73-20.46-16.59-42.13-16.59-42.13,10.42-70.89,5-115.89c0,0,40-126.45,47.91-152.2C841.21,186,839.9,168.66,824.29,160Z"/>
      <path class="e" d="M1007.82,980.13l-5.67,25.89,18.61,12.94,6.47-8.09,8.09,13.75,60.41,5.93s34.94-19.56,28-20.49c-72.27-9.71-89.26-46.92-92.49-51.77S1027.64,974.46,1007.82,980.13Z"/>
      <path class="e" d="M708.49,921.88l-26.7,35.6,8.09,9.7,6.47-4,3.24,17.8s32.76,34.78,46.11,35.59,34-2.42,34-2.42-12.13-23.47-21.84-27.51-20.23-46.92-20.23-46.92S718.2,939.27,708.49,921.88Z"/>
    </g>
    <g>
      <g>
        <polygon class="h" points="1080.27 758.21 1096.87 671.44 1119.82 679.09 1090.21 760.31 1080.27 758.21"/>
        <path class="e" d="M1099.17,675.37l16.77,5.59-27.65,75.88-4.52-1,15.4-80.52m-4.6-7.86-17.8,93,15.37,3.24,31.55-86.56-29.12-9.71Z"/>
      </g>
      <path class="e" d="M1078.93,756l-9.44,13.75s8.09,10.79,12.13,11.33l3-3.51s.4,8,1.62,10,11.59,9.57,23.19,11.86a36,36,0,0,0,20.22-1.61,16,16,0,0,0-10.51-8.36c-8-2.16-24.27-33.17-24.27-33.17S1089.58,758.25,1078.93,756Z"/>
      <path class="e" d="M1106,242.24s-19.35-27.94-7.55-56.36c9.89-23.82,26.36-30.37,38.29-30.2,13,.18,15.91,6.2,17.08,14.56,0,0,41-23.27,74.34,15.1,19.24,22.11-.81,51-12.49,51.33-5.34.16-13.13,2.69-13.13,2.69s14.56,13.13,11.6,33.89c-4.69,32.78-40.45,35.73-62.56,21.84S1132.13,234.15,1106,242.24Z"/>
      <path class="d" d="M1166.38,228.52a30.75,30.75,0,1,0-46.76,26.25l-1.24,22.83,25.88,10.79-2-29.84A30.76,30.76,0,0,0,1166.38,228.52Z"/>
      <g>
        <polygon class="h" points="1261.97 763.01 1211.38 677.93 1238.3 669.4 1276.05 763.01 1261.97 763.01"/>
        <path class="e" d="M1236.55,673.1l35,86.92h-7.92l-47.79-80.37,20.66-6.55m3.49-7.4-33.17,10.52,53.39,89.8h20.23L1240,665.7Z"/>
      </g>
      <path class="b" d="M1113,549.93s-18.6,54.2-6.47,78.47c0,0-17.8,24.27-12.94,46.11l29.12,9.71,34.79-81.71Z"/>
      <path class="b" d="M1089.52,517.57s19,53.79,51.78,77.66,27.5,21,27.5,21-10.92,15.37,9.71,39.64,32.36,28.32,32.36,28.32L1244,673.7l-73.62-168.27Z"/>
      <polygon class="e" points="1038.7 424.14 1041.4 406.34 1066.33 418.87 1038.7 424.14"/>
      <path class="g" d="M1128,276.08c37.21,12.06,39.24,20.23,40,40.86s-35.59,127.82-35.59,127.82S1025.61,242.91,1128,276.08Z"/>
      <path class="e" d="M1136.71,414.29S1123.5,283,1118.38,274.6s-18.07-11.06-24.81-2.16c0,0,3.23,12.68,9.17,48s10.78,87.91,10.78,87.91Z"/>
      <path class="e" d="M1277.25,756.13s-12.22,4.13-20.85,3.59l3.86,6.3s-4.4,19.05-1.34,25c0,0,6.11,7.73,18,1.26,0,0,23.15,7,45.13,3.42,18.51-3.06-2.7-9.17-11.69-16,0,0-25.17-4.5-29.84-13.66S1277.25,756.13,1277.25,756.13Z"/>
      <rect class="a" x="1028.49" y="409.28" width="136.44" height="131.75" transform="matrix(0.99, -0.15, 0.15, 0.99, -57.48, 164.69)"/>
      <g>
        <path class="h" d="M1078.11,416.93c-28.23,0-54.43-16.31-55.54-17l-2.78-1.75,2-2.61c.24-.32,24.56-32.05,36.67-59.09,12.41-27.68,38.1-61.37,39.19-62.8l.9-1.17H1100c9.79,0,13.12,28.24,13.42,35.23.63,14.49-11,34.38-22.41,51.92a90.34,90.34,0,0,1-26.1,26.2,18.66,18.66,0,0,0,8.41,2.42c8.11,0,13.37.82,16.77,1.94-.06-1.32-.14-2.92-.27-4.84A18.45,18.45,0,0,1,1100.22,367a4.44,4.44,0,0,1,1.92-.44,4.12,4.12,0,0,1,3.16,1.47c2.28,2.64,2.14,9.72,1.4,16.25a6.23,6.23,0,0,0,3.62-2.1,6.57,6.57,0,0,1,5.11-2.68,6.92,6.92,0,0,1,4.85,2.23,6.77,6.77,0,0,1,2.27-.41,6.61,6.61,0,0,1,5.77,3.76,12,12,0,0,1,3.58-.56,12.63,12.63,0,0,1,9.35,4.58l1.66,2.16L1124,408.9l-.44.2C1122.88,409.42,1106.12,416.93,1078.11,416.93Z"/>
        <path class="e" d="M1100,275.5c5.39,0,9.89,19.77,10.43,32.36s-8.81,30-21.94,50.16A84.81,84.81,0,0,1,1060,385.34s3.24,5.21,13.3,5.93c18.7,0,20,4.32,20,4.32a92,92,0,0,0-.36-10.43,15.45,15.45,0,0,1,8.63-15.46,1.59,1.59,0,0,1,.66-.16c3.72,0,1.14,17.78,1.14,17.78a9.55,9.55,0,0,0,1.62.12,9.86,9.86,0,0,0,7.72-3.36,3.72,3.72,0,0,1,2.81-1.6c2.31,0,4,3,4,3a5.42,5.42,0,0,1,3.09-1.22c3.2,0,4.1,4.82,4.1,4.82a9.94,9.94,0,0,1,5.25-1.62,9.5,9.5,0,0,1,7,3.41l-16.54,15.46s-16.54,7.56-44.22,7.56-53.94-16.54-53.94-16.54,24.63-32,37-59.69S1100,275.5,1100,275.5m0-6h-3l-1.8,2.35c-1.1,1.43-27,35.4-39.55,63.4-12,26.7-36.07,58.16-36.31,58.48l-4,5.22,5.58,3.51c1.13.72,28,17.47,57.13,17.47,28.66,0,46-7.77,46.71-8.1l.89-.4.72-.67L1143,395.3l4-3.73-3.34-4.32a15.5,15.5,0,0,0-11.72-5.75,14.6,14.6,0,0,0-2.28.18,9.08,9.08,0,0,0-7.07-3.38h0a8.56,8.56,0,0,0-1.51.13,9.25,9.25,0,0,0-5.61-1.95h0a8.9,8.9,0,0,0-5.31,1.77c.22-6.29-.55-9.88-2.55-12.2a7.09,7.09,0,0,0-5.42-2.51h0a7.62,7.62,0,0,0-3.18.71,21.47,21.47,0,0,0-12.1,21.32c0,.24,0,.47.05.7a74.62,74.62,0,0,0-13.43-1c-.76-.06-1.46-.15-2.1-.26a94.74,94.74,0,0,0,22.18-23.72c16.8-25.77,23.43-41.32,22.9-53.69a103.39,103.39,0,0,0-3.62-22.29c-1.94-6.79-5.38-15.81-12.8-15.81Z"/>
      </g>
      <path class="e" d="M1122.42,199.36s.95,16.59,17.26,17c0,0,14.09,18,27.78,4.32C1191.93,196.19,1122.42,199.36,1122.42,199.36Z"/>
    </g>
    <g>
      <polygon class="d" points="485.38 705.04 555.49 873.31 577.06 866.84 518.82 680.23 485.38 705.04"/>
      <polygon class="d" points="305.24 720.14 234.05 833.4 216.79 817.22 272.88 705.04 305.24 720.14"/>
      <path class="f" d="M481.93,459.92s46.11,109.89,55,149.26A548.54,548.54,0,0,1,548.26,680s-40,48.95-122.69,38.57c0,0-14.37-140.22-12.45-193.1L338.2,709.36S244.08,674.3,229.79,626.3c0,0,78.7-107.15,88.14-126.83S383.81,367,410.24,356.2,481.93,459.92,481.93,459.92Z"/>
      <path class="i" d="M519.68,134.07a38.83,38.83,0,1,0-55.47,33.54l-2.7,45.12,33.11,2.12-3.05-45A38.83,38.83,0,0,0,519.68,134.07Z"/>
      <path class="c" d="M294.73,589.06s11.4-33.37,61-29.13c40.19,3.44,48.18,43.73,48.18,43.73l-19-1.75s-2.52-21.69-28.47-26.38c-18.6-3.35-35,2.86-39.52,17.72Z"/>
      <path class="a" d="M532.61,487.06l-240.3-60.88C329.36,279.93,413.19,175,479.55,191.81S569.66,340.81,532.61,487.06Z"/>
      <path class="d" d="M410.4,228.75s19.37-14.92,37.81.36,7.47,27.84-.41,55.8-34.62,96.45-34.62,96.45l-29.79,171s4.21,30-2.37,35.52-9.9-5.53-9.9-5.53-4.5,6.73-8.54,6.46-4.91-7.36-4.91-7.36-2.61,6.59-9.44,3.7a8.45,8.45,0,0,1-5.31-9.54s-6.94,6.83-12,1.36-1.87-12.56-1.58-16.86-.52-16.52,7.36-21.13,10-8,14.14-25.55,21.39-118,25.52-139.37S392,253.73,410.4,228.75Z"/>
      <rect class="g" x="206.13" y="591.47" width="261.52" height="140.88" transform="translate(82.07 -35.72) rotate(6.91)"/>
      <path class="e" d="M543.08,850.12,569.51,841l17.26,40.45,33.44.81s14.2-10.34,27.68,1.53c15.63,13.75-5.3,30.56-41.7,26.25s-31,2.56-31,2.56l-20.62.4Z"/>
      <path class="e" d="M249.15,814.53l-22.65-17.8-40.45,56.63,7.55,10.24,8.09-3.77-2.16,8.09S218.41,897,223.8,899.2s42.07,11.87,42.61-3.24-21.57-12.4-21.57-12.4l-11.33-36.67Z"/>
      <path class="e" d="M444.93,146.84s-6.2-29.39,15.1-19.42c0,0,4-18.87,26.43-8.09,0,0,64.18,3.24,76.58-57.16,0,0-73.89-20-108.94,28C454.1,90.21,409.6,106.39,444.93,146.84Z"/>
    </g>
    <circle class="j" cx="1139.14" cy="227.13" r="5.39"/>
    <circle class="j" cx="1155.07" cy="228.17" r="4.65"/>
    <path class="j" d="M1140.94,242.87s5.66,5,12,.72"/>
    <path class="e" d="M1129.16,196.94s7.28,19.82-11.86,28.18c-13.43,5.86-12.14-9.31-12.14-9.31Z"/>
    <circle class="j" cx="856.8" cy="65.73" r="7.82"/>
    <path class="j" d="M870.94,89.88s-9.28,3.51-15-4.31"/>
    <circle class="j" cx="506.64" cy="127.52" r="6.74"/>
    <path class="j" d="M506.51,140.58s6.2,5.93,10.79-1.62"/>
    <path class="h" d="M1171.77,179.41a44.38,44.38,0,0,1,18-6,31.41,31.41,0,0,1,9.88.55,25.73,25.73,0,0,1,9.33,4.15l5.08,3.58-6.33,1c-1.58.24-3.23.53-4.83.85s-3.21.64-4.78,1-3.11.82-4.56,1.3a18.88,18.88,0,0,0-2,.82,5.34,5.34,0,0,0-1.25.77l-1-4.84c2.2.85,4.31,1.72,6.44,2.64s4.23,1.88,6.31,2.91,4.15,2.07,6.18,3.18,4,2.31,6,3.52l9.75,6-11.17-1.28c-2.17-.25-4.54-.37-6.83-.41s-4.61,0-6.9.19a39.22,39.22,0,0,0-6.82,1.08,20.1,20.1,0,0,0-3.29,1.08,18.06,18.06,0,0,0-3.12,1.67,17,17,0,0,1,5.76-4.47,35,35,0,0,1,6.93-2.51,51.31,51.31,0,0,1,7.24-1.28,60.21,60.21,0,0,1,7.41-.36l-1.43,4.69c-4-2-8.11-3.9-12.22-5.75-2.07-.91-4.13-1.85-6.21-2.73s-4.17-1.8-6.22-2.63l-4.32-1.77,3.31-3.08a10.25,10.25,0,0,1,3-1.9,26.15,26.15,0,0,1,2.67-1,48.54,48.54,0,0,1,5.16-1.28c1.71-.34,3.4-.63,5.1-.86s3.38-.44,5.13-.6l-1.25,4.55a22.56,22.56,0,0,0-7.37-4,29.53,29.53,0,0,0-4.22-1,43,43,0,0,0-4.42-.43,47.13,47.13,0,0,0-9.07.62A59.17,59.17,0,0,0,1171.77,179.41Z"/>
    <path class="h" d="M1108,189.89a19,19,0,0,1,1.74-7.37,24.9,24.9,0,0,1,4.13-6.49,26.81,26.81,0,0,1,5.88-5.1,27.18,27.18,0,0,1,3.42-1.89,35,35,0,0,1,3.64-1.4l11.05-4L1130,172c-.28.3-.7.8-1,1.23s-.69.92-1,1.39a18.28,18.28,0,0,0-1.65,2.95,10.75,10.75,0,0,0-.85,3.25,9.42,9.42,0,0,0,.6,3.68,7.25,7.25,0,0,1-2.78-3.25,10.15,10.15,0,0,1-.66-4.47,14.69,14.69,0,0,1,1-4.34,16.3,16.3,0,0,1,.9-2,13.17,13.17,0,0,1,1.19-2l3.11,4.36A56.2,56.2,0,0,0,1123,176a44.79,44.79,0,0,0-5.31,3.85,56.27,56.27,0,0,0-4.94,4.63C1111.15,186.14,1109.61,187.92,1108,189.89Z"/>
    <path class="h" d="M1183.38,244.26a17.71,17.71,0,0,1,10.21,2.05,18.09,18.09,0,0,1,7.77,7.79,21.08,21.08,0,0,1,1.09,2.65,18.88,18.88,0,0,1,.6,2.76,17.47,17.47,0,0,1-.07,5.5,19.15,19.15,0,0,1-4.32,9.45c-.08-3.48,0-6.66-.39-9.62,0-.74-.22-1.45-.31-2.16s-.26-1.4-.49-2.06a17.87,17.87,0,0,0-1.46-3.81,23.85,23.85,0,0,0-5.1-6.64A65.16,65.16,0,0,0,1183.38,244.26Z"/>
    <path class="h" d="M1157.88,608.58a61.36,61.36,0,0,1-13-6.88,85.37,85.37,0,0,1-11.4-9.23,72.42,72.42,0,0,1-9.53-11.26,41.5,41.5,0,0,1-6.12-13.49c3.32,3.71,6.51,7.14,9.79,10.52s6.67,6.62,10,9.92,6.81,6.55,10.2,9.9S1154.63,604.83,1157.88,608.58Z"/>
    <path class="h" d="M731.14,113.07c-5,7.33-10.15,14.47-15.43,21.54l-4,5.3-4,5.25-4,5.25-4.08,5.2c-2.74,3.45-5.43,6.95-8.21,10.36l-8.33,10.27q-8.36,10.24-16.94,20.3l-3-4.41L675,188.74l11.85-3.24,5.72-1.56-3.34,4.71c-1.64,2.3-3.32,4.58-5,6.87s-3.32,4.57-5,6.83c-3.37,4.54-6.81,9-10.35,13.46q4-7.51,8.25-14.84c1.4-2.46,2.83-4.9,4.27-7.33s2.87-4.88,4.33-7.29l2.38,3.15-11.61,4-11.65,3.89-8.73,2.91,5.76-7.32q8.17-10.4,16.63-20.56l8.46-10.16c2.81-3.39,5.72-6.7,8.58-10.06l4.31-5,4.37-5,4.37-5,4.43-4.91C718.91,125.83,724.92,119.37,731.14,113.07Z"/>
    <path class="h" d="M696.21,243.08c-1.32,3.3-2.72,6.56-4.15,9.8s-2.9,6.46-4.4,9.66-3,6.38-4.59,9.56-3.13,6.33-4.73,9.48l-4-3.43c4.23-3.36,8.49-6.66,12.78-9.94l8.37-6.4-3.83,9.86c-1.2,3.1-2.38,6.22-3.62,9.31s-2.46,6.19-3.72,9.27-2.55,6.16-3.84,9.23-2.62,6.13-4,9.18l-3.42-2.85q7.07-4,14.22-7.74c2.41-1.24,4.79-2.51,7.21-3.71s4.85-2.41,7.31-3.55c-2.12,1.7-4.28,3.33-6.44,4.95s-4.37,3.19-6.55,4.79c-4.38,3.15-8.82,6.22-13.28,9.25l-5.73,3.88,2.31-6.73q1.64-4.72,3.32-9.43c1.14-3.13,2.27-6.27,3.45-9.38s2.35-6.23,3.55-9.34,2.44-6.2,3.66-9.29l4.55,3.45q-6.51,4.8-13.12,9.48l-10.07,7.12L673.63,279q2.65-4.59,5.38-9.13t5.52-9.05c1.87-3,3.79-6,5.72-8.95S694.15,246,696.21,243.08Z"/>
    <path class="h" d="M863.24,33.79c-3.12-2.59-6-5.13-8.88-7.55a103.79,103.79,0,0,0-8.76-6.73,48.63,48.63,0,0,0-9.41-5.08A41,41,0,0,0,831,12.84a56.6,56.6,0,0,0-5.76-.89A14.94,14.94,0,0,1,828,10.68a17.17,17.17,0,0,1,3-.78,21.86,21.86,0,0,1,6.31,0,26.89,26.89,0,0,1,6.11,1.69,31.83,31.83,0,0,1,5.51,3A37.48,37.48,0,0,1,857.79,23,32.13,32.13,0,0,1,863.24,33.79Z"/>
    <path class="h" d="M544.79,70.2c-8.36.68-16.52,1.13-24.44,2.29A72.09,72.09,0,0,0,508.86,75a24.81,24.81,0,0,0-9.56,5.13l-1.85-4.51c1.68.16,3.36.35,5,.56s3.36.47,5,.74a94.28,94.28,0,0,1,10,2.18,91.91,91.91,0,0,1-10.19,1.38q-2.53.19-5.07.33c-1.69.08-3.38.14-5.07.16l-5.88.1,4-4.61A25.74,25.74,0,0,1,507,69.28,51.74,51.74,0,0,1,519.8,67a72.39,72.39,0,0,1,12.68.46A61.79,61.79,0,0,1,544.79,70.2Z"/>
  </g>
</svg>
