<svg xmlns="http://www.w3.org/2000/svg" width="43" height="43" viewBox="0 0 43 43">
  <path id="instagram" d="M21.5,43A21.5,21.5,0,0,1,6.3,6.3,21.5,21.5,0,1,1,36.7,36.7,21.359,21.359,0,0,1,21.5,43Zm0-39.417A17.917,17.917,0,1,0,39.417,21.5,17.937,17.937,0,0,0,21.5,3.583Zm0,28.667c-2.881,0-3.266-.012-4.432-.065-3.912-.179-6.074-2.341-6.254-6.252-.052-1.143-.064-1.524-.064-4.432s.012-3.288.064-4.432c.179-3.91,2.342-6.072,6.254-6.251,1.158-.055,1.5-.067,4.432-.067s3.3.013,4.434.067c3.914.177,6.075,2.339,6.251,6.251.053,1.166.065,1.551.065,4.432s-.012,3.268-.065,4.432c-.176,3.911-2.337,6.073-6.251,6.252C24.768,32.238,24.383,32.25,21.5,32.25Zm0-19.561c-2.84,0-3.192.008-4.343.06-2.915.133-4.274,1.492-4.408,4.408-.048,1.1-.063,1.436-.063,4.343s.015,3.24.063,4.343c.136,2.914,1.5,4.273,4.408,4.407,1.13.052,1.469.063,4.343.063,2.842,0,3.186-.011,4.344-.063,2.913-.132,4.273-1.491,4.408-4.407.05-1.139.06-1.48.06-4.343s-.011-3.2-.06-4.343c-.135-2.915-1.495-4.274-4.408-4.406C24.713,12.7,24.373,12.689,21.5,12.689Zm0,14.331a5.52,5.52,0,1,1,5.52-5.52A5.526,5.526,0,0,1,21.5,27.02Zm0-9.1A3.583,3.583,0,1,0,25.085,21.5,3.587,3.587,0,0,0,21.5,17.917Zm5.736-.863a1.29,1.29,0,1,1,1.293-1.29A1.291,1.291,0,0,1,27.236,17.053Z" fill="#fff"/>
</svg>
