<?xml version="1.0" encoding="utf-8"?>
<!-- Generator: Adobe Illustrator 24.0.3, SVG Export Plug-In . SVG Version: 6.00 Build 0)  -->
<svg version="1.1" id="Layer_1" xmlns="http://www.w3.org/2000/svg" xmlns:xlink="http://www.w3.org/1999/xlink" x="0px" y="0px"
	 viewBox="0 0 150 150" style="enable-background:new 0 0 150 150;" xml:space="preserve">
<style type="text/css">
	.st0{fill:#FFD800;}
	.st1{fill:none;}
	.st2{fill:#231F20;}
	.st3{fill:#FFFFFF;stroke:#231F20;}
	.st4{fill:#FFFFFF;}
</style>
<g id="Group_102" transform="translate(-152 -4887.5)">
	<path id="Rectangle_73" class="st0" d="M157.5,4887.5h139c3,0,5.5,2.5,5.5,5.5v139c0,3-2.5,5.5-5.5,5.5h-139c-3,0-5.5-2.5-5.5-5.5
		v-139C152,4890,154.5,4887.5,157.5,4887.5z"/>
	<path id="Path_584" class="st1" d="M191.8,4972.1c-0.1,0.1-0.1,0.1-0.2,0.2c-0.1,0.1-0.1,0.1-0.2,0.2c-0.1,0.1-0.1,0.1-0.2,0.2
		c-0.1,0.1-0.1,0.1-0.2,0.2c-0.1,0.1-0.1,0.1-0.2,0.2c-0.1,0.1-0.1,0.1-0.2,0.2c-0.1,0.1-0.1,0.1-0.2,0.2s-0.1,0.1-0.2,0.2
		c-0.1,0.1-0.1,0.1-0.2,0.2c-0.1,0.1-0.1,0.1-0.2,0.2c-0.1,0.1-0.1,0.1-0.2,0.2s-0.1,0.1-0.2,0.2c-0.1,0.1-0.1,0.1-0.2,0.2
		c-0.1,0.1-0.1,0.1-0.2,0.2s-0.1,0.1-0.2,0.2c-0.1,0.1-0.1,0.1-0.2,0.2c-0.4,0.4-0.8,0.8-1.3,1c0,0-0.1,0.1-0.1,0.1
		c-0.1,0.1-0.1,0.1-0.2,0.2c-0.1,0.1-0.1,0.1-0.2,0.2c-0.1,0.1-0.1,0.1-0.2,0.2c0,0,0,0,0,0.1h6c0.4,0,0.8,0.1,1.1,0.4v-7.2
		c0,0-0.1,0.1-0.1,0.1c-0.1,0.1-0.1,0.1-0.2,0.2c-0.1,0.1-0.1,0.1-0.2,0.2c-0.1,0.1-0.1,0.1-0.2,0.2s-0.1,0.1-0.2,0.2
		s-0.1,0.1-0.2,0.2s-0.1,0.1-0.2,0.2c-0.1,0.1-0.1,0.1-0.2,0.2S191.9,4972,191.8,4972.1z"/>
	<path id="Path_585" class="st1" d="M225.5,4943c0,0-0.1,0.1-0.1,0.1c0,0-0.1,0.1-0.1,0.1c0.1,0,0.1,0.1,0.2,0.1V4943z"/>
	<path id="Path_586_3_" class="st2" d="M243.6,4983.5"/>
	<path id="Path_586_2_" class="st2" d="M243.2,4983.9c-0.1,0.1-0.3,0.3-0.4,0.4c-0.1,0.1-0.1,0.1-0.2,0.2c0,0,0,0-0.1,0l0,10.5
		c0,3.3,0.2,5.3,3.4,5.3c3.1,0,3.4-2,3.4-5.3v-16.7c0-0.3,0.1-0.6,0.3-0.8c-0.3,0.3-0.5,0.5-0.8,0.8c-0.1,0.1-0.3,0.3-0.4,0.4
		c-0.1,0.1-0.3,0.3-0.4,0.4c-0.1,0.1-0.3,0.3-0.4,0.4c-0.1,0.1-0.1,0.1-0.2,0.2c-0.1,0.1-0.1,0.1-0.2,0.2c-0.1,0.1-0.3,0.3-0.4,0.4
		c-0.1,0.1-0.1,0.1-0.2,0.2c-0.1,0.1-0.3,0.3-0.4,0.4c-0.1,0.1-0.3,0.3-0.4,0.4c-0.1,0.1-0.3,0.3-0.4,0.4c-0.2,0.2-0.4,0.4-0.6,0.6
		c-0.2,0.2-0.4,0.4-0.6,0.6"/>
	<path id="Path_587" class="st2" d="M192.2,4954.1c-0.1,0.6,0.4,1.2,1,1.3c0.1,0,0.2,0,0.2,0h2.3c2,0,3.1-0.3,3.1-2.9
		c0-2.6-1-2.9-3.1-2.9h-2.3c-0.6-0.1-1.2,0.4-1.3,1c0,0.1,0,0.2,0,0.3V4954.1z"/>
	<path id="Path_588" class="st2" d="M216.9,4916.1v3.1c0,0.7,0.5,1.3,1.2,1.3c0,0,0.1,0,0.1,0h2.2c2,0,3.1-0.3,3.1-2.9
		c0-2.6-1-2.9-3.1-2.9h-2.2C217.6,4914.7,217,4915.3,216.9,4916.1C216.9,4916,216.9,4916.1,216.9,4916.1z"/>
	<path id="Path_589" class="st2" d="M198.2,4922.3v-4.6c0-2-0.3-3.1-3.1-3.1s-3.1,1-3.1,3.1v4.6c-0.1,0.6,0.4,1.2,1,1.3
		c0.1,0,0.2,0,0.2,0h3.7c0.6,0.1,1.2-0.4,1.3-1.1C198.2,4922.5,198.2,4922.4,198.2,4922.3z"/>
	<path id="Path_590" class="st2" d="M255.2,4914.8h-5.9c-0.6-0.1-1.2,0.4-1.3,1c0,0.1,0,0.2,0,0.3v6.6c0.1-0.1,0.2-0.2,0.3-0.4
		c0.2-0.2,0.4-0.4,0.6-0.6c0.1-0.1,0.1-0.1,0.2-0.2c0.1-0.1,0.1-0.1,0.2-0.2c0.1-0.1,0.1-0.1,0.2-0.2c0.1-0.1,0.1-0.1,0.2-0.2
		c0.1-0.1,0.1-0.1,0.2-0.2c0.1-0.1,0.3-0.3,0.4-0.4c0.2-0.2,0.4-0.4,0.6-0.6c0.2-0.2,0.4-0.4,0.6-0.6c0.1-0.1,0.1-0.1,0.2-0.2
		c0.2-0.2,0.4-0.4,0.6-0.6c0.1-0.1,0.1-0.1,0.2-0.2c0.1-0.1,0.3-0.3,0.4-0.4c0.1-0.1,0.1-0.1,0.2-0.2c0.1-0.1,0.1-0.1,0.2-0.2
		c0.1-0.1,0.3-0.3,0.4-0.4c0.1-0.1,0.1-0.1,0.2-0.2c0.1-0.1,0.3-0.3,0.4-0.4c0.1-0.1,0.3-0.3,0.4-0.4c0.1-0.1,0.3-0.3,0.4-0.4
		c0.1-0.1,0.3-0.3,0.4-0.4c0.1-0.1,0.1-0.1,0.2-0.2c0.1-0.1,0.1-0.1,0.2-0.2C255.8,4914.7,255.5,4914.8,255.2,4914.8z"/>
	<path id="Path_591" class="st2" d="M216.2,4950.9v3.1c0,0.7,0.5,1.3,1.2,1.3c0,0,0.1,0,0.1,0h2.2c2,0,3.1-0.3,3.1-2.9
		c0-2.6-1-2.9-3.1-2.9h-2.2C216.8,4949.6,216.2,4950.1,216.2,4950.9C216.2,4950.9,216.2,4950.9,216.2,4950.9z"/>
	<path id="Path_592" class="st2" d="M253.1,4949.6h-10.3c-0.6-0.1-1.2,0.4-1.3,1c0,0.1,0,0.2,0,0.3v1.4c-0.1,0.6,0.4,1.2,1,1.3
		c0.1,0,0.2,0,0.2,0h6.6c0.1,0,0.2,0,0.3,0c0.1-0.1,0.2-0.2,0.3-0.3c0.1-0.1,0.3-0.3,0.4-0.4c0.1-0.1,0.3-0.3,0.4-0.4
		c0.1-0.1,0.1-0.1,0.2-0.2c0.1-0.1,0.1-0.1,0.2-0.2c0.1-0.1,0.3-0.3,0.4-0.4c0.1-0.1,0.1-0.1,0.2-0.2c0.1-0.1,0.3-0.3,0.4-0.4
		c0.1-0.1,0.1-0.1,0.2-0.2c0.1-0.1,0.3-0.3,0.4-0.4c0.1-0.1,0.3-0.3,0.4-0.4c0.1-0.1,0.1-0.1,0.2-0.2c0.1-0.1,0.1-0.1,0.2-0.2
		c0.1-0.1,0.1-0.1,0.2-0.2C253.7,4949.5,253.4,4949.6,253.1,4949.6z"/>
	<path id="Path_593" class="st2" d="M249.4,4960.8h-6.6c-0.6-0.1-1.2,0.4-1.3,1c0,0.1,0,0.2,0,0.3v1.4c-0.1,0.6,0.4,1.2,1,1.3
		c0.1,0,0.2,0,0.2,0h3.3c0,0,0-0.1,0.1-0.1c0.1-0.1,0.1-0.1,0.2-0.2c0.2-0.2,0.4-0.4,0.6-0.6c0.1-0.1,0.3-0.3,0.4-0.4
		c0.2-0.2,0.4-0.4,0.6-0.6c0.2-0.2,0.4-0.4,0.6-0.6c0.1-0.1,0.3-0.3,0.4-0.4c0.2-0.2,0.4-0.4,0.6-0.6c0.1-0.1,0.1-0.1,0.2-0.2
		c0.1-0.1,0.3-0.3,0.4-0.4C250,4960.8,249.7,4960.8,249.4,4960.8z"/>
	<path id="Path_594" class="st2" d="M254.8,5019.2c0.1-0.1,0.3-0.3,0.4-0.4c0.1-0.1,0.1-0.1,0.2-0.2c0.1-0.1,0.3-0.3,0.4-0.4
		c0.1-0.1,0.3-0.3,0.4-0.4c0.1-0.1,0.3-0.3,0.4-0.4c0.1-0.1,0.1-0.1,0.2-0.2c0.1-0.1,0.1-0.1,0.2-0.2c0.1-0.1,0.1-0.1,0.2-0.2
		c0.1-0.1,0.1-0.1,0.2-0.2c0.1-0.1,0.1-0.1,0.2-0.2c0,0,0,0,0.1-0.1l2.7,5.2c0.2,0.4,0.6,0.6,1,0.6h4.8c0.5,0,1-0.2,1.3-0.6
		c0.1-0.1,0.1-0.1,0.2-0.2c0.1-0.1,0.1-0.1,0.2-0.2c0.2-0.2,0.4-0.4,0.6-0.6c0.1-0.1,0.1-0.1,0.2-0.2c0.1-0.1,0.1-0.1,0.2-0.2
		c0.1-0.1,0.1-0.1,0.2-0.2c0.1-0.1,0.3-0.3,0.4-0.4c0.1-0.1,0.1-0.1,0.2-0.2c0.1-0.1,0.1-0.1,0.2-0.2c0.2-0.2,0.4-0.4,0.6-0.6
		c0.1-0.1,0.3-0.3,0.4-0.4c0.1-0.1,0.1-0.1,0.2-0.2c0.1-0.1,0.1-0.1,0.2-0.2c0.1-0.1,0.1-0.1,0.2-0.2c0.1-0.1,0.1-0.1,0.2-0.2
		c0.1-0.1,0.1-0.1,0.2-0.2c0.1-0.1,0.3-0.3,0.4-0.4c0.1-0.1,0.3-0.3,0.4-0.4c0.1-0.1,0.1-0.1,0.2-0.2c0.1-0.1,0.1-0.1,0.2-0.2
		c0.1-0.1,0.1-0.1,0.2-0.2c0.1-0.1,0.3-0.3,0.4-0.4c0.1-0.1,0.1-0.1,0.2-0.2c0.1-0.1,0.3-0.3,0.4-0.4c0.2-0.2,0.4-0.4,0.6-0.6
		c0.1-0.1,0.1-0.1,0.2-0.2c0.1-0.1,0.1-0.1,0.2-0.2c0.1-0.1,0.1-0.1,0.2-0.2c0.1-0.1,0.3-0.3,0.4-0.4c0.1-0.1,0.1-0.1,0.2-0.2
		c0.1-0.1,0.1-0.1,0.2-0.2c0.1-0.1,0.3-0.3,0.4-0.4c0.1-0.1,0.1-0.1,0.2-0.2c0.1-0.1,0.3-0.3,0.4-0.4c0.1-0.1,0.3-0.3,0.4-0.4
		c0.1-0.1,0.1-0.1,0.2-0.2c0.1-0.1,0.1-0.1,0.2-0.2c0.1-0.1,0.1-0.1,0.2-0.2c0.2-0.2,0.4-0.4,0.6-0.6c0.1-0.1,0.3-0.3,0.4-0.4
		c0.1-0.1,0.1-0.1,0.2-0.2c0.1-0.1,0.3-0.3,0.4-0.4c0.1-0.1,0.1-0.1,0.2-0.2c0.1-0.1,0.1-0.1,0.2-0.2c0.1-0.1,0.3-0.3,0.4-0.4
		c0.1-0.1,0.1-0.1,0.2-0.2c0.1-0.1,0.1-0.1,0.2-0.2c0.1-0.1,0.3-0.3,0.4-0.4c0.1-0.1,0.3-0.3,0.4-0.4c0.1-0.1,0.1-0.1,0.2-0.2
		c0.1-0.1,0.1-0.1,0.2-0.2c-0.3,0.2-0.7,0.4-1.1,0.4h-4.8c-0.4,0-0.8-0.2-1-0.6l-4.4-8.5c-0.1-0.1-0.2-0.2-0.3-0.2h-1.7
		c-0.7,0-1.3,0.5-1.3,1.2c0,0,0,0.1,0,0.1v6.7c0,0.7-0.5,1.3-1.2,1.3c0,0-0.1,0-0.1,0h-4.8c-0.7,0-1.3-0.5-1.3-1.2c0,0,0-0.1,0-0.1
		v-27.1c0-0.3,0.1-0.6,0.3-0.8c-0.1,0.1-0.1,0.1-0.2,0.2c-0.1,0.1-0.1,0.1-0.2,0.2c-0.1,0.1-0.1,0.1-0.2,0.2
		c-0.1,0.1-0.1,0.1-0.2,0.2c-0.1,0.1-0.1,0.1-0.2,0.2c-0.1,0.1-0.1,0.1-0.2,0.2c-0.1,0.1-0.3,0.3-0.4,0.4c-0.1,0.1-0.3,0.3-0.4,0.4
		c-0.1,0.1-0.1,0.1-0.2,0.2c-0.2,0.2-0.4,0.4-0.6,0.6c-0.1,0.1-0.1,0.1-0.2,0.2c-0.1,0.1-0.1,0.1-0.2,0.2c-0.1,0.1-0.1,0.1-0.2,0.2
		c-0.1,0.1-0.1,0.1-0.2,0.2c-0.1,0.1-0.1,0.1-0.2,0.2c-0.1,0.1-0.3,0.3-0.4,0.4l0,0v15.4c0,2.8-0.6,10.3-10.7,10.3
		s-10.7-7.5-10.7-10.3v-18.9c-0.1-0.6,0.4-1.2,1-1.3c0.1,0,0.2,0,0.3,0h4.8c0.6-0.1,1.2,0.3,1.3,1c0,0.1,0,0.2,0,0.3v4.9
		c0,0,0-0.1,0.1-0.1c0.1-0.1,0.1-0.1,0.2-0.2c0.1-0.1,0.1-0.1,0.2-0.2c0.1-0.1,0.1-0.1,0.2-0.2c0.1-0.1,0.3-0.3,0.4-0.4
		c0.1-0.1,0.3-0.3,0.4-0.4c0.1-0.1,0.3-0.3,0.4-0.4c0.1-0.1,0.3-0.3,0.4-0.4c0.1-0.1,0.3-0.3,0.4-0.4c0.1-0.1,0.3-0.3,0.4-0.4
		c0.1-0.1,0.1-0.1,0.2-0.2c0.1-0.1,0.3-0.3,0.4-0.4c0.1-0.1,0.1-0.1,0.2-0.2c0.1-0.1,0.1-0.1,0.2-0.2c0.1-0.1,0.3-0.3,0.4-0.4
		c0.1-0.1,0.3-0.3,0.4-0.4c0.1-0.1,0.3-0.3,0.4-0.4c0.1-0.1,0.1-0.1,0.2-0.2c0.1-0.1,0.3-0.3,0.4-0.4c0.1-0.1,0.3-0.3,0.4-0.4
		c0.1-0.1,0.1-0.1,0.2-0.2c0.1-0.1,0.3-0.3,0.4-0.4c0.1-0.1,0.1-0.1,0.2-0.2c0.1-0.1,0.1-0.1,0.2-0.2c0.1-0.1,0.3-0.3,0.4-0.4
		c0.1-0.1,0.3-0.3,0.4-0.4c0.3-0.3,0.5-0.5,0.8-0.8c0.2-0.2,0.4-0.4,0.6-0.6c0.1-0.1,0.3-0.3,0.4-0.4c0.1-0.1,0.3-0.3,0.4-0.4
		c0.1-0.1,0.1-0.1,0.2-0.2c0.1-0.1,0.3-0.3,0.4-0.4c0.1-0.1,0.3-0.3,0.4-0.4c-0.2,0.2-0.5,0.3-0.8,0.2h-17.8c-0.6,0.1-1.2-0.4-1.3-1
		c0-0.1,0-0.2,0-0.2v-27.2c-0.1-0.6,0.4-1.2,1-1.3c0.1,0,0.2,0,0.3,0h7c0,0,0,0,0-0.1c0.1-0.1,0.1-0.1,0.2-0.2
		c0.1-0.1,0.1-0.1,0.2-0.2c0.1-0.1,0.1-0.1,0.2-0.2c0.3-0.3,0.3-0.3,0.6-0.6c0.1-0.1,0.3-0.3,0.4-0.4c0.3-0.3,0.5-0.5,0.8-0.8
		c0.1-0.1,0.3-0.3,0.4-0.4c0.2-0.2,0.4-0.4,0.6-0.6c0.1-0.1,0.1-0.1,0.2-0.2c0.1-0.1,0.1-0.1,0.2-0.2c0.1-0.1,0.1-0.1,0.2-0.2
		c0.1-0.1,0.1-0.1,0.2-0.2c0.1-0.1,0.1-0.1,0.2-0.2c0.1-0.1,0.3-0.3,0.4-0.4c0.1-0.1,0.2-0.3,0.4-0.4c-0.2,0.2-0.5,0.3-0.8,0.3H242
		c-0.6,0.1-1.2-0.4-1.3-1c0-0.1,0-0.2,0-0.2V4916c0.1-0.6-0.3-1.2-1-1.3c-0.1,0-0.2,0-0.3,0h-5.9c-0.6,0.1-1.2-0.4-1.3-1
		c0-0.1,0-0.2,0-0.2v-4.8c0-0.3,0.1-0.6,0.3-0.8c-0.1,0.1-0.3,0.3-0.4,0.4c-0.1,0.1-0.1,0.1-0.2,0.2c-0.1,0.1-0.3,0.3-0.4,0.4
		c-0.1,0.1-0.3,0.3-0.4,0.4c-0.1,0.1-0.3,0.3-0.4,0.4c-0.1,0.1-0.1,0.1-0.2,0.2c-0.1,0.1-0.3,0.3-0.4,0.4c-0.1,0.1-0.3,0.3-0.4,0.4
		c-0.1,0.1-0.2,0.2-0.4,0.3c1.1,1.6,1.6,3.8,1.6,6.6c0,4-1,6.7-3.2,8.3c-0.2,0.1-0.2,0.4-0.1,0.6l4.5,8.4c0.4,0.7,0.2,1.6-0.5,2.1
		c-0.3,0.2-0.6,0.2-0.9,0.2h-4.8c-0.4,0-0.8-0.2-1-0.6l-4.4-8.5c-0.1-0.1-0.2-0.2-0.3-0.2h-1.7c-0.7,0-1.3,0.5-1.3,1.2
		c0,0,0,0.1,0,0.1v6.7c0,0.7-0.5,1.3-1.2,1.3c0,0-0.1,0-0.1,0h-4.8c-0.7,0-1.3-0.5-1.3-1.2c0,0,0-0.1,0-0.1v-27.1
		c0-0.3,0.1-0.6,0.3-0.8c-0.1,0.1-0.3,0.3-0.4,0.4c-0.1,0.1-0.3,0.3-0.4,0.4c-0.1,0.1-0.1,0.1-0.2,0.2c-0.1,0.1-0.3,0.3-0.4,0.4
		c-0.1,0.1-0.1,0.1-0.2,0.2c-0.1,0.1-0.1,0.1-0.2,0.2c-0.1,0.1-0.3,0.3-0.4,0.4c-0.1,0.1-0.3,0.3-0.4,0.4c-0.1,0.1-0.3,0.3-0.4,0.4
		c-0.1,0.1-0.1,0.1-0.2,0.2c-0.1,0.1-0.3,0.3-0.4,0.4c-0.1,0.1-0.3,0.3-0.4,0.4c-0.1,0.1-0.3,0.3-0.4,0.4c-0.1,0.1-0.1,0.1-0.2,0.2
		c-0.1,0-0.1,0.1-0.1,0.1c0.4,1.6,0.6,3.3,0.5,5v18c0,0.9-0.4,1.4-1.3,1.4h-4.8c-0.6,0.1-1.2-0.4-1.3-1c0-0.1,0-0.2,0-0.3v-3.7
		c0.1-0.6-0.3-1.2-1-1.3c-0.1,0-0.2,0-0.3,0h-3.7c-0.6-0.1-1.2,0.4-1.3,1c0,0.1,0,0.2,0,0.3v3.7c0.1,0.6-0.3,1.2-1,1.3
		c-0.1,0-0.2,0-0.3,0H186c-0.8,0-1.3-0.5-1.3-1.4v-18c0-3.1,0.3-6.3,2.4-8.5c-0.1,0.1-0.1,0.1-0.2,0.2c-0.1,0.1-0.1,0.1-0.2,0.2
		s-0.1,0.1-0.2,0.2c-0.1,0.1-0.1,0.1-0.2,0.2c-0.1,0.1-0.1,0.1-0.2,0.2c-0.1,0.1-0.1,0.1-0.2,0.2c-0.1,0.1-0.1,0.1-0.2,0.2
		c-0.1,0.1-0.1,0.1-0.2,0.2c-0.1,0.1-0.1,0.1-0.2,0.2c-0.1,0.1-0.1,0.1-0.2,0.2c-0.1,0.1-0.1,0.1-0.2,0.2s-0.1,0.1-0.2,0.2
		c-0.1,0.1-0.1,0.1-0.2,0.2c-0.1,0.1-0.1,0.1-0.2,0.2c-0.1,0.1-0.1,0.1-0.2,0.2c-0.1,0.1-0.1,0.1-0.2,0.2c-0.1,0.1-0.1,0.1-0.2,0.2
		c-0.1,0.1-0.1,0.1-0.2,0.2c-0.1,0.1-0.1,0.1-0.2,0.2c-0.1,0.1-0.1,0.1-0.2,0.2c-0.1,0.1-0.1,0.1-0.2,0.2c-0.1,0.1-0.1,0.1-0.2,0.2
		c-0.1,0.1-0.1,0.1-0.2,0.2c-0.1,0.1-0.1,0.1-0.2,0.2c-0.1,0.1-0.1,0.1-0.2,0.2s-0.1,0.1-0.2,0.2c-0.1,0.1-0.1,0.1-0.2,0.2
		s-0.1,0.1-0.2,0.2c-0.1,0.1-0.1,0.1-0.2,0.2c-0.1,0.1-0.1,0.1-0.2,0.2c-0.1,0.1-0.1,0.1-0.2,0.2c-0.1,0.1-0.1,0.1-0.2,0.2
		c-0.1,0.1-0.1,0.1-0.2,0.2c-0.1,0.1-0.1,0.1-0.2,0.2c-0.1,0.1-0.1,0.1-0.2,0.2c-0.1,0.1-0.1,0.1-0.2,0.2c-0.1,0.1-0.1,0.1-0.2,0.2
		c-0.1,0.1-0.1,0.1-0.2,0.2c-0.1,0.1-0.1,0.1-0.2,0.2c-0.1,0.1-0.1,0.1-0.2,0.2c-0.1,0.1-0.1,0.1-0.2,0.2c-0.1,0.1-0.1,0.1-0.2,0.2
		c-0.1,0.1-0.1,0.1-0.2,0.2c-0.1,0.1-0.1,0.1-0.2,0.2c-0.1,0.1-0.1,0.1-0.2,0.2c-0.1,0.1-0.1,0.1-0.2,0.2c-0.1,0.1-0.1,0.1-0.2,0.2
		c-0.1,0.1-0.1,0.1-0.2,0.2c-0.1,0.1-0.1,0.1-0.2,0.2c-0.1,0.1-0.1,0.1-0.2,0.2c-0.1,0.1-0.1,0.1-0.2,0.2c-0.1,0.1-0.1,0.1-0.2,0.2
		c-0.1,0.1-0.1,0.1-0.2,0.2c-0.1,0.1-0.1,0.1-0.2,0.2s-0.1,0.1-0.2,0.2c-0.1,0.1-0.1,0.1-0.2,0.2c-0.1,0.1-0.1,0.1-0.2,0.2
		c-0.1,0.1-0.1,0.1-0.2,0.2c-0.1,0.1-0.1,0.1-0.2,0.2c-0.1,0.1-0.1,0.1-0.2,0.2c-0.1,0.1-0.1,0.1-0.2,0.2c-0.1,0.1-0.1,0.1-0.2,0.2
		c-0.1,0.1-0.1,0.1-0.2,0.2c-0.1,0.1-0.1,0.1-0.2,0.2c-0.1,0.1-0.1,0.1-0.2,0.2c-0.1,0.1-0.1,0.1-0.2,0.2c-0.1,0.1-0.1,0.1-0.2,0.2
		c-0.1,0.1-0.1,0.1-0.2,0.2c-0.1,0.1-0.1,0.1-0.2,0.2c-0.1,0.1-0.1,0.1-0.2,0.2s-0.1,0.1-0.2,0.2c-0.1,0.1-0.1,0.1-0.2,0.2
		c-0.1,0.1-0.1,0.1-0.2,0.2c-0.1,0.1-0.1,0.1-0.2,0.2c-2.3,2.2-2.6,5.5-2.6,8.7v18c0,0.9,0.5,1.4,1.3,1.4h4.7c0,0,0,0.1,0,0.1
		c-0.1,0.1-0.1,0.1-0.2,0.2c-0.1,0.1-0.1,0.1-0.2,0.2c-0.1,0.1-0.3,0.3-0.4,0.4c-0.1,0.1-0.3,0.3-0.4,0.4c-0.1,0.1-0.3,0.3-0.4,0.4
		c-0.1,0.1-0.1,0.1-0.2,0.2c-0.1,0.1-0.1,0.1-0.2,0.2c-0.1,0.1-0.3,0.3-0.4,0.4c-0.1,0.1-0.3,0.3-0.4,0.4c-0.1,0.1-0.1,0.1-0.2,0.2
		c-0.1,0.1-0.3,0.3-0.4,0.4c-0.1,0.1-0.3,0.3-0.4,0.4c-0.1,0.1-0.1,0.1-0.2,0.2c-0.1,0.1-0.1,0.1-0.2,0.2c-0.1,0.1-0.1,0.1-0.2,0.2
		c-0.1,0.1-0.3,0.3-0.4,0.4c-0.1,0.1-0.1,0.1-0.2,0.2c-0.1,0.1-0.1,0.1-0.2,0.2c-0.3,0.3-0.5,0.6-0.5,1v27.2c-0.1,0.6,0.4,1.2,1,1.3
		c0.1,0,0.2,0,0.2,0h4.5c0,0,0,0,0,0.1c-0.1,0.1-0.3,0.3-0.4,0.4c-0.1,0.1-0.3,0.3-0.4,0.4c-0.1,0.1-0.3,0.3-0.4,0.4
		c-0.1,0.1-0.3,0.3-0.4,0.4c-0.1,0.1-0.3,0.3-0.4,0.4c-0.1,0.1-0.3,0.3-0.4,0.4c-0.1,0.1-0.3,0.3-0.4,0.4c-0.1,0.1-0.1,0.1-0.2,0.2
		c-0.1,0.1-0.3,0.3-0.4,0.4c-0.1,0.1-0.3,0.3-0.4,0.4c-0.1,0.1-0.3,0.3-0.4,0.4c-0.1,0.1-0.3,0.3-0.4,0.4c-0.1,0.1-0.1,0.1-0.2,0.2
		c-0.1,0.1-0.1,0.1-0.2,0.2c-0.1,0.1-0.1,0.1-0.2,0.2c-0.3,0.2-0.5,0.6-0.5,1v27.2c-0.1,0.6,0.4,1.2,1,1.3c0.1,0,0.2,0,0.2,0h4.8
		c0.4,0,0.8-0.1,1-0.5c0.1-0.1,0.1-0.1,0.2-0.2c0.1-0.1,0.1-0.1,0.2-0.2c0.1-0.1,0.1-0.1,0.2-0.2c0.1-0.1,0.3-0.3,0.4-0.4
		c0.1-0.1,0.3-0.3,0.4-0.4c0.1-0.1,0.1-0.1,0.2-0.2c0.1-0.1,0.1-0.1,0.2-0.2c0.2-0.2,0.4-0.4,0.6-0.6c0.1-0.1,0.3-0.3,0.4-0.4
		c0.1-0.1,0.1-0.1,0.2-0.2c0.1-0.1,0.1-0.1,0.2-0.2c0.1-0.1,0.1-0.1,0.2-0.2c0.2-0.2,0.4-0.4,0.6-0.6c0.2-0.2,0.4-0.4,0.6-0.6
		c0,0,0.1-0.1,0.1-0.1l1.7,4.2c0.2,0.6,0.8,1,1.5,1h6.2c0.4,0,0.8-0.1,1-0.5c0.1-0.1,0.1-0.1,0.2-0.2c0.1-0.1,0.1-0.1,0.2-0.2
		c0.1-0.1,0.1-0.1,0.2-0.2c0.1-0.1,0.3-0.3,0.4-0.4c0.1-0.1,0.1-0.1,0.2-0.2c0.1-0.1,0.3-0.3,0.4-0.4c0.1-0.1,0.1-0.1,0.2-0.2
		c0.2-0.2,0.4-0.4,0.6-0.6c0.2-0.2,0.4-0.4,0.6-0.6c0.2-0.2,0.4-0.4,0.6-0.6c0.1-0.1,0.3-0.3,0.4-0.4c0.1-0.1,0.3-0.3,0.4-0.4
		c0,0,0,0,0,0v3.7c-0.1,0.6,0.4,1.2,1,1.3c0.1,0,0.2,0,0.2,0h17.8c0.4,0,0.8-0.1,1-0.4c0.1-0.1,0.3-0.3,0.4-0.4
		c0.1-0.1,0.3-0.3,0.4-0.4c0.1-0.1,0.3-0.3,0.4-0.4c0.1-0.1,0.1-0.1,0.2-0.2c0.1-0.1,0.3-0.3,0.4-0.4c0.2-0.2,0.4-0.4,0.6-0.6
		c0.1-0.1,0.3-0.3,0.4-0.4c0.2-0.2,0.4-0.4,0.6-0.6c0.2-0.2,0.4-0.4,0.6-0.6c0,0,0.1,0,0.1-0.1c1.2,2.7,3.8,5.3,9.8,5.3
		c4.1,0,6.6-1.2,8.2-2.9c0.1-0.1,0.1-0.1,0.2-0.2c0.1-0.1,0.1-0.1,0.2-0.2c0.1-0.1,0.1-0.1,0.2-0.2c0.1-0.1,0.1-0.1,0.2-0.2
		c0.1-0.1,0.1-0.1,0.2-0.2s0.1-0.1,0.2-0.2s0.1-0.1,0.2-0.2c0.1-0.1,0.1-0.1,0.2-0.2c0.1-0.1,0.1-0.1,0.2-0.2s0.1-0.1,0.2-0.2
		s0.1-0.1,0.2-0.2s0.1-0.1,0.2-0.2c0.1-0.1,0.1-0.1,0.2-0.2s0.1-0.1,0.2-0.2c0.1-0.1,0.1-0.1,0.2-0.2c0.1-0.1,0.1-0.1,0.2-0.2
		s0.1-0.1,0.2-0.2c0.1-0.1,0.1-0.1,0.2-0.2s0.1-0.1,0.2-0.2c0.1-0.1,0.1-0.1,0.2-0.2c0.1-0.1,0.1-0.1,0.2-0.2
		c0.1-0.1,0.1-0.1,0.2-0.2c0.1-0.1,0.1-0.1,0.2-0.2c0.1-0.1,0.1-0.1,0.2-0.2c0.1-0.1,0.1-0.1,0.2-0.2c0.1-0.1,0.1-0.1,0.2-0.2
		c0.1-0.1,0.1-0.1,0.2-0.2c0.1-0.1,0.1-0.1,0.2-0.2c0.1-0.1,0.1-0.1,0.2-0.2c0.1-0.1,0.1-0.1,0.2-0.2c0.1-0.1,0.1-0.1,0.2-0.2
		c0.1-0.1,0.1-0.1,0.2-0.2v7.3c0,0.7,0.5,1.3,1.2,1.3c0,0,0.1,0,0.1,0h4.8c0.4,0,0.8-0.2,1-0.5c0.1-0.1,0.3-0.3,0.4-0.4
		c0.1-0.1,0.1-0.1,0.2-0.2c0.1-0.1,0.1-0.1,0.2-0.2c0.1-0.1,0.1-0.1,0.2-0.2c0.1-0.1,0.3-0.3,0.4-0.4c0.1-0.1,0.1-0.1,0.2-0.2
		c0.1-0.1,0.1-0.1,0.2-0.2c0.1-0.1,0.1-0.1,0.2-0.2 M195.5,4942.3c7.6,0,10.6,3.2,10.6,10.2s-3.1,10.2-10.6,10.2h-2
		c-0.6-0.1-1.2,0.4-1.3,1c0,0.1,0,0.2,0,0.3v6.8c0.1,0.6-0.3,1.2-1,1.3c-0.1,0-0.2,0-0.3,0h-4.8c-0.6,0.1-1.2-0.4-1.3-1
		c0-0.1,0-0.2,0-0.2v-27.2c-0.1-0.6,0.4-1.2,1-1.3c0.1,0,0.2,0,0.3,0L195.5,4942.3z M219.4,4942.3c2-0.1,4,0.3,5.8,1
		c0,0,0.1-0.1,0.1-0.1c0,0,0.1-0.1,0.1-0.1v0.3c3.2,1.5,4.6,4.4,4.6,9.1c0,4-1,6.7-3.2,8.3c-0.2,0.1-0.2,0.4-0.1,0.6l4.5,8.4
		c0.4,0.7,0.2,1.6-0.5,2.1c-0.3,0.2-0.6,0.2-0.9,0.2h-4.8c-0.4,0-0.8-0.2-1-0.6l-4.4-8.5c-0.1-0.1-0.2-0.2-0.3-0.2h-1.7
		c-0.7,0-1.3,0.5-1.3,1.2c0,0,0,0.1,0,0.1v6.7c0,0.7-0.5,1.3-1.2,1.3c0,0-0.1,0-0.1,0h-4.8c-0.7,0-1.3-0.5-1.3-1.2c0,0,0-0.1,0-0.1
		v-27.1c0-0.7,0.5-1.3,1.2-1.3c0,0,0.1,0,0.1,0L219.4,4942.3z M192.2,4971.7c0.1-0.1,0.1-0.1,0.2-0.2c0.1-0.1,0.1-0.1,0.2-0.2
		c0.1-0.1,0.1-0.1,0.2-0.2c0.1-0.1,0.1-0.1,0.2-0.2c0.1-0.1,0.1-0.1,0.2-0.2c0.1-0.1,0.1-0.1,0.2-0.2c0,0,0.1-0.1,0.1-0.1v7.2
		c0.2,0.2,0.3,0.3,0.4,0.5l5.8,14.2c0.2,0.4,0.5,0.3,0.5-0.1v-13.7c-0.1-0.6,0.4-1.2,1-1.3c0.1,0,0.2,0,0.3,0h4.8
		c0.6-0.1,1.2,0.3,1.3,1c0,0.1,0,0.2,0,0.3v27.2c0.1,0.6-0.4,1.2-1,1.3c-0.1,0-0.2,0-0.3,0H200c-0.7,0-1.3-0.4-1.5-1l-5.8-14.2
		c-0.2-0.4-0.5-0.3-0.5,0.1v13.7c0.1,0.6-0.4,1.2-1,1.3c-0.1,0-0.2,0-0.3,0h-4.8c-0.6,0.1-1.2-0.4-1.3-1c0-0.1,0-0.2,0-0.2v-27.2
		c-0.1-0.6,0.4-1.2,1-1.3c0.1,0,0.2,0,0.3,0h0.3c0,0,0,0,0-0.1c0.1-0.1,0.1-0.1,0.2-0.2c0.1-0.1,0.1-0.1,0.2-0.2
		c0.1-0.1,0.1-0.1,0.2-0.2c0,0,0.1-0.1,0.1-0.1c0.5-0.3,0.9-0.6,1.3-1c0.1-0.1,0.1-0.1,0.2-0.2c0.1-0.1,0.1-0.1,0.2-0.2
		c0.1-0.1,0.1-0.1,0.2-0.2c0.1-0.1,0.1-0.1,0.2-0.2c0.1-0.1,0.1-0.1,0.2-0.2c0.1-0.1,0.1-0.1,0.2-0.2c0.1-0.1,0.1-0.1,0.2-0.2
		c0.1-0.1,0.1-0.1,0.2-0.2c0.1-0.1,0.1-0.1,0.2-0.2c0.1-0.1,0.1-0.1,0.2-0.2s0.1-0.1,0.2-0.2c0.1-0.1,0.1-0.1,0.2-0.2
		c0.1-0.1,0.1-0.1,0.2-0.2s0.1-0.1,0.2-0.2c0.1-0.1,0.1-0.1,0.2-0.2c0.1-0.1,0.1-0.1,0.2-0.2s0.1-0.1,0.2-0.2
		C192.1,4971.8,192.1,4971.8,192.2,4971.7L192.2,4971.7z M232.2,4978.4v4.8c0.1,0.6-0.4,1.2-1,1.3c-0.1,0-0.2,0-0.3,0h-10.3
		c-0.6-0.1-1.2,0.4-1.3,1c0,0.1,0,0.2,0,0.3v1.4c-0.1,0.6,0.4,1.2,1,1.3c0.1,0,0.2,0,0.2,0h6.6c0.6-0.1,1.2,0.3,1.3,1
		c0,0.1,0,0.2,0,0.3v4.8c0.1,0.6-0.4,1.2-1,1.3c-0.1,0-0.2,0-0.3,0h-6.6c-0.6-0.1-1.2,0.4-1.3,1c0,0.1,0,0.2,0,0.3v1.4
		c-0.1,0.6,0.4,1.2,1,1.3c0.1,0,0.2,0,0.2,0h10.3c0.6-0.1,1.2,0.3,1.3,1c0,0.1,0,0.2,0,0.3v4.8c0.1,0.6-0.3,1.2-1,1.3
		c-0.1,0-0.2,0-0.3,0H213c-0.6,0.1-1.2-0.4-1.3-1c0-0.1,0-0.2,0-0.2v-27.2c-0.1-0.6,0.4-1.2,1-1.3c0.1,0,0.2,0,0.3,0h17.8
		c0.6-0.1,1.2,0.3,1.3,1C232.2,4978.2,232.2,4978.3,232.2,4978.4z"/>
	<path id="Path_595" class="st3" d="M184.7,4917.7v18c0,0.9,0.5,1.4,1.3,1.4h4.8c0.6,0.1,1.2-0.3,1.3-1c0-0.1,0-0.2,0-0.3v-3.7
		c-0.1-0.6,0.4-1.2,1-1.3c0.1,0,0.2,0,0.3,0h3.7c0.6-0.1,1.2,0.3,1.3,1c0,0.1,0,0.2,0,0.3v3.7c-0.1,0.6,0.4,1.2,1,1.3
		c0.1,0,0.2,0,0.3,0h4.8c0.8,0,1.3-0.5,1.3-1.4v-18c0-1.7-0.1-3.4-0.5-5c-0.9-3.4-3.4-6.1-9.9-6.1c-4,0-6.5,1-8,2.6
		C185,4911.4,184.7,4914.6,184.7,4917.7z M196.9,4923.6h-3.7c-0.6,0.1-1.2-0.4-1.3-1c0-0.1,0-0.2,0-0.2v-4.6c0-2,0.3-3.1,3.1-3.1
		s3.1,1,3.1,3.1v4.6c0.1,0.6-0.4,1.2-1,1.3C197.1,4923.7,197,4923.7,196.9,4923.6L196.9,4923.6z"/>
	<path id="Path_596" class="st3" d="M209.6,4908.8v27.1c0,0.7,0.5,1.3,1.2,1.3c0,0,0.1,0,0.1,0h4.8c0.7,0,1.3-0.5,1.3-1.2
		c0,0,0-0.1,0-0.1v-6.7c0-0.7,0.5-1.3,1.2-1.3c0,0,0.1,0,0.1,0h1.7c0.1,0,0.3,0.1,0.3,0.2l4.4,8.5c0.2,0.4,0.6,0.6,1,0.6h4.8
		c0.8,0.1,1.6-0.5,1.6-1.4c0-0.3-0.1-0.6-0.2-0.9l-4.5-8.4c-0.1-0.2,0-0.4,0.1-0.6c2.3-1.6,3.2-4.4,3.2-8.3c0-2.8-0.5-4.9-1.6-6.6
		c-1.6-2.5-4.5-3.6-9.1-3.6h-9.3c-0.4,0-0.8,0.2-1,0.5C209.6,4908.2,209.5,4908.5,209.6,4908.8z M218.3,4914.8h2.2
		c2,0,3.1,0.3,3.1,2.9c0,2.6-1,2.9-3.1,2.9h-2.2c-0.7,0-1.3-0.5-1.3-1.2c0,0,0-0.1,0-0.1v-3.1
		C216.9,4915.4,217.5,4914.8,218.3,4914.8C218.2,4914.8,218.2,4914.8,218.3,4914.8z"/>
	<path id="Path_597" class="st3" d="M232.2,4908.7v4.8c-0.1,0.6,0.4,1.2,1,1.3c0.1,0,0.2,0,0.2,0h6c0.6-0.1,1.2,0.3,1.3,1
		c0,0.1,0,0.2,0,0.3v19.9c-0.1,0.6,0.4,1.2,1,1.3c0.1,0,0.2,0,0.2,0h4.8c0.3,0,0.6-0.1,0.8-0.3c0.3-0.2,0.5-0.6,0.4-1V4916
		c-0.1-0.6,0.4-1.2,1-1.3c0.1,0,0.2,0,0.3,0h6c0.3,0,0.6-0.1,0.8-0.3c0.3-0.2,0.5-0.6,0.4-1v-4.8c0.1-0.6-0.3-1.2-1-1.3
		c-0.1,0-0.2,0-0.3,0h-21.8c-0.4,0-0.8,0.1-1,0.4C232.3,4908.1,232.2,4908.4,232.2,4908.7z"/>
	<path id="Path_598" class="st4" d="M186.2,4942.3c-0.6-0.1-1.2,0.4-1.3,1.1c0,0.1,0,0.2,0,0.3v27.2c-0.1,0.6,0.4,1.2,1,1.3
		c0.1,0,0.2,0,0.2,0h4.8c0.6,0.1,1.2-0.3,1.3-1c0-0.1,0-0.2,0-0.3v-6.8c-0.1-0.6,0.4-1.2,1-1.3c0.1,0,0.2,0,0.3,0h2
		c7.6,0,10.6-3.2,10.6-10.2s-3.1-10.2-10.6-10.2H186.2z M192.2,4950.9c-0.1-0.6,0.4-1.2,1-1.3c0.1,0,0.2,0,0.3,0h2.3
		c2,0,3.1,0.3,3.1,2.9c0,2.6-1,2.9-3.1,2.9h-2.3c-0.6,0.1-1.2-0.4-1.3-1c0-0.1,0-0.2,0-0.2V4950.9z"/>
	<path id="Path_599" class="st4" d="M210.1,4942.3c-0.7,0-1.3,0.5-1.3,1.2c0,0,0,0.1,0,0.1v27.1c0,0.7,0.5,1.3,1.2,1.3
		c0,0,0.1,0,0.1,0h4.8c0.7,0,1.3-0.5,1.3-1.2c0,0,0-0.1,0-0.1v-6.7c0-0.7,0.5-1.3,1.2-1.3c0,0,0.1,0,0.1,0h1.7
		c0.1,0,0.3,0.1,0.3,0.2l4.4,8.5c0.2,0.4,0.6,0.6,1,0.6h4.8c0.8,0.1,1.6-0.5,1.6-1.4c0-0.3-0.1-0.6-0.2-0.9l-4.5-8.4
		c-0.1-0.2,0-0.4,0.1-0.6c2.3-1.6,3.2-4.4,3.2-8.3c0-4.7-1.4-7.7-4.6-9.1c-0.1,0-0.1-0.1-0.2-0.1c-1.9-0.7-3.8-1-5.8-1L210.1,4942.3
		z M217.5,4949.6h2.2c2,0,3.1,0.3,3.1,2.9c0,2.6-1,2.9-3.1,2.9h-2.2c-0.7,0-1.3-0.5-1.3-1.2c0,0,0-0.1,0-0.1v-3.1
		C216.2,4950.2,216.7,4949.6,217.5,4949.6C217.4,4949.6,217.5,4949.6,217.5,4949.6L217.5,4949.6z"/>
	<path id="Path_600" class="st3" d="M235.3,4942.3c-0.6-0.1-1.2,0.4-1.3,1c0,0.1,0,0.2,0,0.3v27.2c-0.1,0.6,0.4,1.2,1,1.3
		c0.1,0,0.2,0,0.2,0h17.8c0.3,0,0.6-0.1,0.8-0.2c0.3-0.2,0.5-0.6,0.4-1v-4.8c0.1-0.6-0.3-1.2-1-1.3c-0.1,0-0.2,0-0.3,0h-10.3
		c-0.6,0.1-1.2-0.4-1.3-1c0-0.1,0-0.2,0-0.2v-1.4c-0.1-0.6,0.4-1.2,1-1.3c0.1,0,0.2,0,0.3,0h6.6c0.3,0,0.6-0.1,0.8-0.3
		c0.3-0.2,0.5-0.6,0.4-1v-4.8c0.1-0.6-0.3-1.1-0.9-1.2c0,0,0,0,0,0c-0.1,0-0.2,0-0.3,0h-6.6c-0.6,0.1-1.2-0.4-1.3-1
		c0-0.1,0-0.2,0-0.2v-1.4c-0.1-0.6,0.4-1.2,1-1.3c0.1,0,0.2,0,0.3,0h10.3c0.3,0,0.6-0.1,0.8-0.3c0.3-0.2,0.5-0.6,0.4-1v-4.8
		c0.1-0.6-0.3-1.2-1-1.3c-0.1,0-0.2,0-0.3,0L235.3,4942.3L235.3,4942.3z"/>
	<path id="Path_601" class="st3" d="M186.4,4977.2h-0.3c-0.6-0.1-1.2,0.4-1.3,1c0,0.1,0,0.2,0,0.3v27.2c-0.1,0.6,0.4,1.2,1,1.3
		c0.1,0,0.2,0,0.2,0h4.8c0.6,0.1,1.2-0.4,1.3-1c0-0.1,0-0.2,0-0.3v-13.7c0-0.4,0.3-0.5,0.5-0.1l5.8,14.2c0.2,0.6,0.8,1,1.5,1h6.2
		c0.6,0.1,1.2-0.4,1.3-1c0-0.1,0-0.2,0-0.3v-27.2c0.1-0.6-0.3-1.2-1-1.3c-0.1,0-0.2,0-0.3,0h-4.8c-0.6-0.1-1.2,0.4-1.3,1
		c0,0.1,0,0.2,0,0.3v13.7c0,0.4-0.3,0.5-0.5,0.1l-5.8-14.1c-0.1-0.2-0.2-0.4-0.4-0.5c-0.3-0.3-0.7-0.4-1.1-0.4L186.4,4977.2z"/>
	<path id="Path_602" class="st4" d="M213,4977.2c-0.6-0.1-1.2,0.4-1.3,1c0,0.1,0,0.2,0,0.3v27.2c-0.1,0.6,0.4,1.2,1,1.3
		c0.1,0,0.2,0,0.2,0h17.8c0.6,0.1,1.2-0.3,1.3-1c0-0.1,0-0.2,0-0.3v-4.8c0.1-0.6-0.3-1.2-1-1.3c-0.1,0-0.2,0-0.3,0h-10.3
		c-0.6,0.1-1.2-0.4-1.3-1c0-0.1,0-0.2,0-0.2v-1.4c-0.1-0.6,0.4-1.2,1-1.3c0.1,0,0.2,0,0.3,0h6.6c0.6,0.1,1.2-0.4,1.3-1
		c0-0.1,0-0.2,0-0.3v-4.8c0.1-0.6-0.3-1.2-1-1.3c-0.1,0-0.2,0-0.3,0h-6.6c-0.6,0.1-1.2-0.4-1.3-1c0-0.1,0-0.2,0-0.2v-1.4
		c-0.1-0.6,0.4-1.2,1-1.3c0.1,0,0.2,0,0.3,0h10.3c0.6,0.1,1.2-0.4,1.3-1c0-0.1,0-0.2,0-0.3v-4.8c0.1-0.6-0.3-1.2-1-1.3
		c-0.1,0-0.2,0-0.3,0H213z"/>
	<path id="Path_603" class="st3" d="M242.5,4978.4c0.1-0.6-0.3-1.2-1-1.3c-0.1,0-0.2,0-0.3,0h-4.8c-0.6-0.1-1.2,0.4-1.3,1
		c0,0.1,0,0.2,0,0.3v18.9c0,2.8,0.6,10.3,10.7,10.3s10.7-7.5,10.7-10.3v-18.9c0.1-0.6-0.3-1.2-1-1.3c-0.1,0-0.2,0-0.3,0h-4.8
		c-0.4,0-0.8,0.1-1,0.4c-0.2,0.2-0.3,0.5-0.3,0.8v16.7c0,3.3-0.2,5.3-3.4,5.3c-3.1,0-3.4-2-3.4-5.3L242.5,4978.4L242.5,4978.4z"/>
	<path id="Path_604" class="st3" d="M282.9,5004.6l-4.5-8.4c0-0.1,0-0.2,0-0.3c0-0.1,0.1-0.2,0.2-0.3c0.2-0.2,0.5-0.4,0.7-0.6
		c1.8-1.7,2.5-4.2,2.5-7.8c0-7-3.1-10.2-10.6-10.2h-9.3c-0.4,0-0.8,0.2-1,0.5c-0.2,0.2-0.3,0.5-0.3,0.8v27.1c0,0.7,0.5,1.3,1.2,1.3
		c0,0,0.1,0,0.1,0h4.8c0.7,0,1.3-0.5,1.3-1.2c0,0,0-0.1,0-0.1v-6.7c0-0.7,0.5-1.3,1.2-1.3c0,0,0.1,0,0.1,0h1.7
		c0.1,0,0.3,0.1,0.3,0.2l4.4,8.5c0.2,0.4,0.6,0.6,1,0.6h4.8c0.4,0,0.8-0.1,1.1-0.4C283.2,5006.1,283.3,5005.2,282.9,5004.6z
		 M271.4,4990.2h-2.2c-0.7,0-1.3-0.5-1.3-1.2c0,0,0-0.1,0-0.1v-3.1c0-0.7,0.5-1.3,1.2-1.3c0,0,0.1,0,0.1,0h2.2c2,0,3.1,0.3,3.1,2.9
		C274.4,4990,273.4,4990.2,271.4,4990.2z"/>
	<path id="Path_605" class="st2" d="M274.4,4987.4c0-2.6-1-2.9-3.1-2.9h-2.2c-0.7,0-1.3,0.5-1.3,1.2c0,0,0,0.1,0,0.1v3.1
		c0,0.7,0.5,1.3,1.2,1.3c0,0,0.1,0,0.1,0h2.2C273.4,4990.2,274.4,4990,274.4,4987.4z"/>
</g>
</svg>
