<svg xmlns="http://www.w3.org/2000/svg" width="43" height="43" viewBox="0 0 43 43">
  <path id="twitter" d="M21.5,43A21.5,21.5,0,0,1,6.3,6.3,21.5,21.5,0,1,1,36.7,36.7,21.359,21.359,0,0,1,21.5,43Zm0-39.417A17.917,17.917,0,1,0,39.417,21.5,17.937,17.937,0,0,0,21.5,3.583ZM18.405,31.131a12.5,12.5,0,0,1-6.759-1.981,9.049,9.049,0,0,0,1.054.062,8.812,8.812,0,0,0,5.48-1.892,4.412,4.412,0,0,1-4.121-3.062,4.42,4.42,0,0,0,1.993-.075,4.431,4.431,0,0,1-3.539-4.38,4.434,4.434,0,0,0,2,.551,4.422,4.422,0,0,1-1.365-5.89,12.571,12.571,0,0,0,9.091,4.609,4.413,4.413,0,0,1,7.516-4.022,8.805,8.805,0,0,0,2.8-1.07,4.426,4.426,0,0,1-1.94,2.44,8.808,8.808,0,0,0,2.532-.7,8.832,8.832,0,0,1-2.2,2.283A13,13,0,0,1,27.4,27.4,12.093,12.093,0,0,1,18.405,31.131Z" fill="#fff"/>
</svg>
