<svg xmlns="http://www.w3.org/2000/svg" width="758.739" height="758.739" viewBox="0 0 758.739 758.739"><defs><style>.a{fill:#ffd800;}.b{fill:none;}.c{fill:#231f20;}.d,.e{fill:#fff;}.d{stroke:#231f20;stroke-width:2px;}</style></defs><g transform="translate(-581 -208)"><rect class="a" width="758.739" height="758.739" rx="10" transform="translate(581 208)"/><path class="b" d="M121.621,204.664c-.339.349-.676.7-1.03,1.03-.337.347-.676.693-1.028,1.028s-.676.7-1.03,1.028c-.337.349-.674.7-1.028,1.03-.337.347-.676.693-1.028,1.028s-.676.7-1.03,1.028c-.339.352-.681.7-1.035,1.037-.337.344-.674.688-1.023,1.02-.337.349-.676.7-1.03,1.03-.337.347-.676.693-1.028,1.028s-.676.7-1.028,1.028c-.339.349-.676.7-1.03,1.03-.337.347-.676.693-1.028,1.028s-.676.7-1.028,1.028c-.339.349-.676.7-1.03,1.03-.332.342-.666.686-1.013,1.015a34.981,34.981,0,0,1-6.617,5.3,4.631,4.631,0,0,1-.7.483,4.563,4.563,0,0,1-1.028,1.028,4.622,4.622,0,0,1-1.028,1.03,4.571,4.571,0,0,1-1.03,1.028c-.061.085-.1.2-.164.273h30.243a7.45,7.45,0,0,1,5.617,2.155V195.862c-.2.2-.415.378-.62.571-.337.347-.674.693-1.028,1.028-.334.344-.669.688-1.015,1.018-.342.352-.683.7-1.04,1.04s-.683.7-1.04,1.04c-.334.344-.671.688-1.02,1.02-.337.349-.676.7-1.03,1.03-.337.347-.676.693-1.028,1.028S121.973,204.332,121.621,204.664Z" transform="translate(660.612 431.228)"/><path class="c" d="M210.751,299.321c0,16.552,1.074,26.655,16.981,26.655s16.984-10.1,16.984-26.655V215.058A6.724,6.724,0,0,1,246,210.882a1278.845,1278.845,0,0,0-3.085,3.085,3999.009,3999.009,0,0,0-3.085,3.083,24526.507,24526.507,0,0,1-2.058,2.058,1234.805,1234.805,0,0,1-2.058,2.06,4.772,4.772,0,0,0-1.028,1.028,4.715,4.715,0,0,0-1.028,1.028,32702.01,32702.01,0,0,1-2.058,2.058,4.781,4.781,0,0,0-1.03,1.028,617.547,617.547,0,0,1-2.055,2.055,1191.362,1191.362,0,0,1-2.063,2.06,1168.471,1168.471,0,0,0-2.06,2.063,1247.551,1247.551,0,0,1-3.083,3.083,1210.47,1210.47,0,0,1-3.085,3.085,98106.024,98106.024,0,0,0-2.058,2.058,35612924210726.52,35612924210726.52,0,0,0-2.058,2.058,1188.43,1188.43,0,0,0-2.055,2.058,4.77,4.77,0,0,0-1.028,1.028c-.085.061-.193.1-.271.161Z" transform="translate(827.962 452.87)"/><path class="c" d="M106.559,175.67c0,4.084,2.365,6.449,6.449,6.449h11.609c10.318,0,15.478-1.289,15.478-14.616s-5.16-14.619-15.478-14.619H113.008c-4.084,0-6.449,2.15-6.449,6.449Z" transform="translate(677.83 369.3)"/><path class="c" d="M157.818,87.336v15.907a6.436,6.436,0,0,0,6.664,6.664h10.965c10.318,0,15.478-1.291,15.478-14.619s-5.16-14.616-15.478-14.616H164.482A6.435,6.435,0,0,0,157.818,87.336Z" transform="translate(751.689 265.248)"/><path class="c" d="M137.5,119.189V95.974c0-10.32-1.5-15.478-15.69-15.478s-15.693,5.158-15.693,15.478V119.4c0,4.084,2.363,6.449,6.446,6.449h18.49C135.354,125.638,137.5,123.488,137.5,119.189Z" transform="translate(677.196 264.995)"/><path class="c" d="M258.744,81.427H228.65c-4.081,0-6.451,2.15-6.451,6.449v33.152a4.934,4.934,0,0,0,.6-.759,32708.64,32708.64,0,0,0,2.058-2.058,1217.944,1217.944,0,0,1,2.055-2.058,4.783,4.783,0,0,0,1.028-1.03,4.841,4.841,0,0,0,1.03-1.028,4.783,4.783,0,0,0,1.028-1.03,4.729,4.729,0,0,0,1.03-1.028,4.883,4.883,0,0,0,1.028-1.028,600.44,600.44,0,0,1,2.055-2.055,1229.037,1229.037,0,0,0,2.065-2.063,1178.58,1178.58,0,0,1,2.055-2.058,4.771,4.771,0,0,0,1.028-1.028,4.836,4.836,0,0,0,1.03-1.028,4.835,4.835,0,0,0,1.028-1.03,4.772,4.772,0,0,0,1.028-1.028,4.793,4.793,0,0,0,1.03-1.03,4.768,4.768,0,0,0,1.028-1.028,4.77,4.77,0,0,0,1.028-1.028,4.837,4.837,0,0,0,1.03-1.028,4.806,4.806,0,0,0,1.03-1.032,4.76,4.76,0,0,0,1.025-1.028,4.836,4.836,0,0,0,1.03-1.028,4.783,4.783,0,0,0,1.028-1.03,4.782,4.782,0,0,0,1.03-1.028,4.881,4.881,0,0,0,1.028-1.028,4.783,4.783,0,0,0,1.028-1.03,4.78,4.78,0,0,0,1.03-1.028,4.781,4.781,0,0,0,1.028-1.03,4.76,4.76,0,0,0,1.028-1.025,4.784,4.784,0,0,0,1.035-1.035,4.771,4.771,0,0,0,1.028-1.028,4.828,4.828,0,0,0,1.028-1.028,4.794,4.794,0,0,0,1.03-1.03,4.771,4.771,0,0,0,1.028-1.028,4.828,4.828,0,0,0,1.028-1.028A6.724,6.724,0,0,1,258.744,81.427Z" transform="translate(844.458 264.494)"/><path class="c" d="M156.233,159.548v15.907a6.436,6.436,0,0,0,6.664,6.664h10.965c10.318,0,15.478-1.289,15.478-14.616s-5.16-14.619-15.478-14.619H162.9A6.436,6.436,0,0,0,156.233,159.548Z" transform="translate(749.406 369.3)"/><path class="c" d="M267.284,153.639H215.263c-4.086,0-6.449,2.15-6.449,6.449v6.879c0,4.086,2.363,6.449,6.449,6.449h33.316a9,9,0,0,1,1.75.249,8.8,8.8,0,0,1,1.582-1.76,1311.363,1311.363,0,0,1,2.055-2.053,613.705,613.705,0,0,0,2.065-2.065,4.716,4.716,0,0,0,1.028-1.028,4.77,4.77,0,0,0,1.028-1.028,97986.128,97986.128,0,0,0,2.058-2.058,4.771,4.771,0,0,0,1.028-1.028,24510.509,24510.509,0,0,1,2.058-2.058,4.772,4.772,0,0,0,1.028-1.028,19658.422,19658.422,0,0,0,2.06-2.06,604.184,604.184,0,0,1,2.055-2.055,4.837,4.837,0,0,0,1.028-1.03,4.77,4.77,0,0,0,1.028-1.028,4.836,4.836,0,0,0,1.03-1.028A6.727,6.727,0,0,1,267.284,153.639Z" transform="translate(825.171 368.545)"/><path class="c" d="M248.579,176.888H215.263c-4.086,0-6.449,2.153-6.449,6.451v6.879c0,4.086,2.363,6.451,6.449,6.451h16.63a5.345,5.345,0,0,0,.291-.488,4.772,4.772,0,0,0,1.028-1.028,195772.44,195772.44,0,0,0,2.055-2.055,614.633,614.633,0,0,0,2.06-2.06,1210.461,1210.461,0,0,0,2.058-2.055,609.347,609.347,0,0,1,2.058-2.058,1140,1140,0,0,0,2.055-2.058,601.879,601.879,0,0,0,2.058-2.058,1185.689,1185.689,0,0,0,2.058-2.055,1214.765,1214.765,0,0,1,2.058-2.06,4.779,4.779,0,0,0,1.03-1.028,4.829,4.829,0,0,0,1.028-1.028,4.78,4.78,0,0,0,1.028-1.03A6.724,6.724,0,0,1,248.579,176.888Z" transform="translate(825.171 402.045)"/><path class="c" d="M626.239,567.185H601.732a5.24,5.24,0,0,1-4.948-3.01l-22.352-43.207a2.2,2.2,0,0,0-1.723-1.076h-8.6a6.437,6.437,0,0,0-6.664,6.666v33.965a6.434,6.434,0,0,1-6.664,6.661H526.71a6.436,6.436,0,0,1-6.666-6.661V423.379a6.729,6.729,0,0,1,1.418-4.218,6.128,6.128,0,0,0-1.028,1.03,6.018,6.018,0,0,0-1.027,1.028,6.213,6.213,0,0,0-1.03,1.028,6.121,6.121,0,0,0-1.028,1.03,6.015,6.015,0,0,0-1.028,1.028,6.106,6.106,0,0,0-1.028,1.028,620.9,620.9,0,0,0-2.058,2.058,628.914,628.914,0,0,0-2.058,2.058,6.017,6.017,0,0,0-1.028,1.028,1962.193,1962.193,0,0,1-3.088,3.085,6.2,6.2,0,0,0-1.028,1.028,6.038,6.038,0,0,0-1.028,1.03,6.127,6.127,0,0,0-1.023,1.02,6.066,6.066,0,0,0-1.04,1.037,6.2,6.2,0,0,0-1.028,1.028,1188.313,1188.313,0,0,0-2.063,2.065l-.027.022v78.031c0,14.189-3.01,52.236-53.959,52.236s-53.954-38.047-53.954-52.236V423.164c0-4.3,2.363-6.451,6.446-6.451h24.08q6.444,0,6.446,6.451v24.687a5.032,5.032,0,0,0,.327-.547,4.622,4.622,0,0,0,1.028-1.03,4.571,4.571,0,0,0,1.03-1.028,4.64,4.64,0,0,0,1.03-1.033,1273.38,1273.38,0,0,1,2.055-2.058,1273.48,1273.48,0,0,1,2.058-2.055,594.566,594.566,0,0,1,2.058-2.058,1210.478,1210.478,0,0,1,2.055-2.058,609.338,609.338,0,0,0,2.058-2.058,1225.655,1225.655,0,0,0,2.058-2.055,4.675,4.675,0,0,0,1.028-1.03,1252.572,1252.572,0,0,1,2.055-2.053,4.667,4.667,0,0,0,1.035-1.032,4.57,4.57,0,0,0,1.028-1.03,1114.123,1114.123,0,0,0,2.058-2.055,613.174,613.174,0,0,1,2.058-2.058,402.955,402.955,0,0,1,2.058-2.06,4.621,4.621,0,0,0,1.028-1.03,1167.24,1167.24,0,0,1,2.058-2.055,1195.69,1195.69,0,0,1,2.055-2.058,4.623,4.623,0,0,0,1.03-1.028,598.218,598.218,0,0,1,2.058-2.058,4.623,4.623,0,0,0,1.028-1.03,4.563,4.563,0,0,0,1.028-1.028,20671246.9,20671246.9,0,0,1,2.058-2.058,1264.8,1264.8,0,0,1,2.06-2.058,1257.024,1257.024,0,0,0,2.058-2.055,609.338,609.338,0,0,1,2.058-2.058,4061.215,4061.215,0,0,0,3.085-3.09,10898.864,10898.864,0,0,1,2.058-2.058,1241.087,1241.087,0,0,1,2.058-2.055,4.622,4.622,0,0,0,1.028-1.03,1126.931,1126.931,0,0,1,2.058-2.055,1241.162,1241.162,0,0,1,2.055-2.058,6.875,6.875,0,0,1-4.191,1.225H392.345c-4.086,0-6.449-2.363-6.449-6.446V246.9c0-4.3,2.363-6.451,6.449-6.451h35.279c.078-.093.12-.222.193-.322a4.873,4.873,0,0,0,1.025-1.028,4.794,4.794,0,0,0,1.03-1.03,4.715,4.715,0,0,0,1.028-1.028,146839.4,146839.4,0,0,1,3.085-3.085,32714.867,32714.867,0,0,1,2.058-2.058,3572.56,3572.56,0,0,0,3.09-3.088,1243.726,1243.726,0,0,1,3.085-3.085,1223.02,1223.02,0,0,1,3.085-3.085,4.781,4.781,0,0,0,1.028-1.03,4.731,4.731,0,0,0,1.03-1.028,1241.133,1241.133,0,0,0,2.055-2.058,4.687,4.687,0,0,0,1.03-1.03,13050.365,13050.365,0,0,1,2.055-2.055,195071.446,195071.446,0,0,0,2.058-2.058,6.719,6.719,0,0,1-4.172,1.279H426.311c-4.086,0-6.449-2.365-6.449-6.449V107.6q0-6.448-6.451-6.449H383.316c-4.081,0-6.449-2.365-6.449-6.449V70.632a6.724,6.724,0,0,1,1.279-4.176,4.825,4.825,0,0,0-1.028,1.028,4.837,4.837,0,0,0-1.03,1.028,4.836,4.836,0,0,0-1.028,1.03,4.724,4.724,0,0,0-1.028,1.03A4.737,4.737,0,0,0,373,71.6a4.815,4.815,0,0,0-1.028,1.025,4.846,4.846,0,0,0-1.03,1.03,4.77,4.77,0,0,0-1.028,1.028,4.793,4.793,0,0,0-1.03,1.03,4.827,4.827,0,0,0-1.028,1.028,4.772,4.772,0,0,0-1.028,1.028,4.79,4.79,0,0,0-1.03,1.03,4.826,4.826,0,0,0-1.028,1.028,4.783,4.783,0,0,0-1.028,1.03,4.8,4.8,0,0,0-1.032,1.03,4.816,4.816,0,0,0-.808.681c5.358,8.2,7.855,19.181,7.855,33.2,0,19.991-4.943,33.965-16.337,42.133a2.28,2.28,0,0,0-.644,2.795l22.786,42.347c3.01,5.59-.43,11.609-7.1,11.609h-24.5a5.243,5.243,0,0,1-4.945-3.01L316.667,168.44a2.191,2.191,0,0,0-1.721-1.076h-8.6a6.437,6.437,0,0,0-6.664,6.666v33.963a6.434,6.434,0,0,1-6.661,6.664H268.945a6.436,6.436,0,0,1-6.664-6.664V70.847a6.712,6.712,0,0,1,1.421-4.218,6.066,6.066,0,0,0-1.025,1.023,6.09,6.09,0,0,0-1.035,1.033,6.125,6.125,0,0,0-1.028,1.03,6.127,6.127,0,0,0-1.03,1.028,6.18,6.18,0,0,0-1.033,1.035,5.977,5.977,0,0,0-1.023,1.025,6.035,6.035,0,0,0-1.03,1.028,6.035,6.035,0,0,0-1.028,1.03,6.125,6.125,0,0,0-1.03,1.028,6.2,6.2,0,0,0-1.028,1.028,6.174,6.174,0,0,0-1.025,1.025,6.079,6.079,0,0,0-1.032,1.033A6.122,6.122,0,0,0,250.326,80a6.036,6.036,0,0,0-1.028,1.03,6.016,6.016,0,0,0-1.035,1.035,6.144,6.144,0,0,0-1.023,1.023,6.035,6.035,0,0,0-1.028,1.03,6.037,6.037,0,0,0-1.03,1.028,6.2,6.2,0,0,0-1.028,1.028,6.231,6.231,0,0,0-1.03,1.03,6.2,6.2,0,0,0-1.028,1.028,6.173,6.173,0,0,0-1.025,1.025,6.079,6.079,0,0,0-1.033,1.033,5.74,5.74,0,0,0-.742.676c2.116,7.943,2.551,16.674,2.551,25.239v91.141c0,4.73-2.15,7.311-6.449,7.311H211.325c-4.084,0-6.451-2.148-6.451-6.449V189.5q0-6.451-6.446-6.449h-18.49c-4.084,0-6.446,2.148-6.446,6.449v18.7q0,6.451-6.449,6.449H142.964c-4.084,0-6.449-2.58-6.449-7.311V116.2c0-15.693,1.465-31.952,12.085-42.862-.351.329-.683.674-1.015,1.015-.361.339-.7.691-1.045,1.04s-.691.683-1.028,1.03c-.359.339-.7.688-1.04,1.04-.354.332-.686.679-1.023,1.023-.354.334-.686.679-1.023,1.025-.356.334-.691.681-1.028,1.028-.356.334-.693.683-1.03,1.028-.356.337-.691.683-1.028,1.03-.356.334-.691.681-1.03,1.028s-.686.679-1.02,1.023c-.356.334-.693.683-1.033,1.03-.356.337-.7.686-1.033,1.032-.356.337-.693.683-1.03,1.03-.361.339-.7.691-1.042,1.042-.351.332-.681.674-1.015,1.015-.354.337-.691.683-1.028,1.03-.356.334-.691.681-1.028,1.028-.356.334-.693.681-1.03,1.028-.354.337-.691.683-1.028,1.03-.356.334-.691.681-1.028,1.028-.354.332-.683.674-1.018,1.015-.361.339-.7.691-1.042,1.042-.356.334-.691.681-1.028,1.028-.356.337-.693.683-1.03,1.03-.361.339-.7.691-1.042,1.042-.351.332-.681.674-1.015,1.015-.354.334-.691.683-1.028,1.03-.356.334-.691.681-1.028,1.028-.356.334-.693.681-1.03,1.028-.354.337-.691.683-1.028,1.03-.356.334-.691.681-1.028,1.028s-.683.674-1.018,1.015c-.359.339-.7.691-1.042,1.042-.356.334-.691.681-1.028,1.028-.359.337-.7.686-1.033,1.032-.359.337-.7.688-1.035,1.037-.354.332-.686.676-1.018,1.018-.356.334-.693.683-1.03,1.028-.356.337-.691.683-1.028,1.03-.356.334-.691.681-1.03,1.028s-.691.683-1.028,1.03c-.354.332-.688.679-1.023,1.023-.356.334-.691.681-1.028,1.025-.359.339-.7.688-1.037,1.037-.356.334-.691.681-1.028,1.028-.361.339-.7.693-1.042,1.042-.352.332-.683.676-1.015,1.018-.356.334-.691.681-1.028,1.028-.356.334-.693.681-1.03,1.028-.354.337-.691.683-1.028,1.03-.356.334-.691.681-1.028,1.028-.356.334-.693.683-1.03,1.028s-.683.676-1.015,1.018c-.361.339-.7.691-1.042,1.04s-.693.683-1.03,1.03c-.356.334-.691.681-1.028,1.028-.361.339-.7.693-1.042,1.042-.351.332-.683.674-1.015,1.018-.356.334-.691.681-1.028,1.028-.356.334-.693.681-1.03,1.028-.354.337-.691.683-1.028,1.03-.356.334-.691.681-1.028,1.028-.356.334-.693.683-1.03,1.028s-.683.676-1.015,1.015c-.361.339-.7.691-1.042,1.042-.356.334-.693.683-1.03,1.03-.359.337-.7.688-1.037,1.037s-.688.681-1.023,1.025c-.354.334-.688.679-1.025,1.023-.356.337-.691.683-1.028,1.03-.356.334-.691.681-1.03,1.028s-.691.683-1.028,1.03c-.356.334-.691.681-1.028,1.028-11.567,10.9-13.113,27.7-13.113,43.89V284.5c0,4.731,2.363,7.311,6.446,7.311h23.9c-.1.117-.154.29-.249.42a4.839,4.839,0,0,0-1.028,1.03,4.784,4.784,0,0,0-1.03,1.028,4.883,4.883,0,0,0-1.028,1.028,4.894,4.894,0,0,0-1.028,1.03,4.782,4.782,0,0,0-1.03,1.028,4.827,4.827,0,0,0-1.028,1.028,4.793,4.793,0,0,0-1.03,1.03,4.783,4.783,0,0,0-1.03,1.028,4.837,4.837,0,0,0-1.028,1.03,4.789,4.789,0,0,0-1.03,1.03,4.882,4.882,0,0,0-1.028,1.028,4.884,4.884,0,0,0-1.028,1.028,4.848,4.848,0,0,0-1.03,1.03,4.883,4.883,0,0,0-1.028,1.028,4.835,4.835,0,0,0-1.028,1.03,4.781,4.781,0,0,0-1.03,1.028,4.825,4.825,0,0,0-1.028,1.028,4.8,4.8,0,0,0-1.03,1.03,4.782,4.782,0,0,0-1.03,1.028,4.965,4.965,0,0,0-1.03,1.03,4.9,4.9,0,0,0-1.028,1.03,4.828,4.828,0,0,0-1.028,1.028,4.881,4.881,0,0,0-1.028,1.028,4.837,4.837,0,0,0-1.028,1.03,4.783,4.783,0,0,0-1.03,1.028,4.841,4.841,0,0,0-1.028,1.03c-1.462,1.086-2.282,2.78-2.282,5.287v137.36c0,4.086,2.363,6.451,6.449,6.451H89.669c-.071.083-.112.2-.178.288a4.781,4.781,0,0,0-1.03,1.028,4.826,4.826,0,0,0-1.028,1.028,4.78,4.78,0,0,0-1.028,1.03,4.737,4.737,0,0,0-1.03,1.03,4.826,4.826,0,0,0-1.028,1.028,4.873,4.873,0,0,0-1.028,1.025,4.752,4.752,0,0,0-1.03,1.033,4.783,4.783,0,0,0-1.03,1.028,4.772,4.772,0,0,0-1.028,1.028,4.793,4.793,0,0,0-1.03,1.03,4.824,4.824,0,0,0-1.028,1.028,4.822,4.822,0,0,0-1.028,1.028,4.791,4.791,0,0,0-1.03,1.03,4.77,4.77,0,0,0-1.028,1.028,4.875,4.875,0,0,0-1.032,1.032,4.817,4.817,0,0,0-1.025,1.028A4.826,4.826,0,0,0,72,485.852a4.8,4.8,0,0,0-1.033,1.03,4.826,4.826,0,0,0-1.028,1.028,4.782,4.782,0,0,0-1.028,1.03,4.779,4.779,0,0,0-1.03,1.028,4.824,4.824,0,0,0-1.028,1.028,4.784,4.784,0,0,0-1.028,1.03,4.784,4.784,0,0,0-1.03,1.028,4.84,4.84,0,0,0-1.028,1.03,4.742,4.742,0,0,0-1.03,1.03,6,6,0,0,0-2.307,5.2V637.891c0,4.086,2.363,6.451,6.449,6.451H90.961a6,6,0,0,0,5.209-2.314A4.872,4.872,0,0,0,97.195,641a4.767,4.767,0,0,0,1.028-1.028,4.835,4.835,0,0,0,1.03-1.028,4.782,4.782,0,0,0,1.028-1.03,4.771,4.771,0,0,0,1.028-1.028,4.8,4.8,0,0,0,1.03-1.03,4.77,4.77,0,0,0,1.028-1.028,4.773,4.773,0,0,0,1.028-1.028,4.829,4.829,0,0,0,1.028-1.028,598.713,598.713,0,0,0,2.06-2.06,4.727,4.727,0,0,0,1.03-1.028,1120.518,1120.518,0,0,0,2.055-2.058,4.726,4.726,0,0,0,1.03-1.028,4.829,4.829,0,0,0,1.028-1.028,4.728,4.728,0,0,0,1.028-1.03,1123.658,1123.658,0,0,0,2.058-2.055,4.828,4.828,0,0,0,1.028-1.028A1213.924,1213.924,0,0,0,118.8,619.4a4.759,4.759,0,0,0,1.028-1.025,5.54,5.54,0,0,0,.644-.405l8.753,21.434a7.429,7.429,0,0,0,7.525,4.943h31.6a6,6,0,0,0,5.207-2.314A4.874,4.874,0,0,0,174.582,641a4.768,4.768,0,0,0,1.028-1.028,4.835,4.835,0,0,0,1.03-1.028,592.783,592.783,0,0,1,2.058-2.058,4.839,4.839,0,0,0,1.028-1.03,1174.112,1174.112,0,0,1,2.058-2.055,4.816,4.816,0,0,0,1.025-1.028,1152.186,1152.186,0,0,0,2.063-2.06,4.716,4.716,0,0,0,1.028-1.028,1120.514,1120.514,0,0,0,2.055-2.058,4.726,4.726,0,0,0,1.03-1.028,21816.194,21816.194,0,0,0,2.058-2.058,13049.674,13049.674,0,0,0,2.055-2.055,4.827,4.827,0,0,0,1.028-1.028,1225.24,1225.24,0,0,0,2.063-2.065c.037-.027.083-.044.12-.073v18.568c0,4.086,2.363,6.451,6.449,6.451h90.285c2.495,0,4.179-.813,5.226-2.26a1320.086,1320.086,0,0,1,2.053-2.055,26715.754,26715.754,0,0,1,3.085-3.085,1962.114,1962.114,0,0,0,3.085-3.088,60997.7,60997.7,0,0,1,2.06-2.055,613.173,613.173,0,0,1,2.058-2.058,1273.342,1273.342,0,0,0,2.055-2.058,29399.227,29399.227,0,0,1,3.085-3.085,1778.031,1778.031,0,0,1,3.085-3.083,5.54,5.54,0,0,0,.549-.33c5.909,13.777,19.276,27.023,49.336,27.023,20.723,0,33.511-6.3,41.4-14.719.344-.342.7-.679,1.03-1.03s.7-.679,1.028-1.028c.344-.342.7-.679,1.028-1.028s.688-.664,1.008-1.006c.354-.349.718-.7,1.052-1.052s.7-.679,1.03-1.03c.344-.342.7-.679,1.028-1.028.344-.342.7-.679,1.028-1.028.347-.344.7-.679,1.03-1.03.344-.342.7-.679,1.028-1.028.356-.351.72-.7,1.057-1.059.334-.334.681-.661,1-1,.344-.344.7-.681,1.028-1.03s.7-.674,1.023-1.02c.347-.344.705-.683,1.035-1.037.347-.342.7-.679,1.03-1.028.344-.342.7-.679,1.028-1.028.344-.342.7-.679,1.03-1.03s.7-.679,1.028-1.028c.344-.342.7-.679,1.028-1.028.344-.344.7-.678,1.03-1.03.344-.342.7-.679,1.028-1.028.344-.342.7-.679,1.028-1.028.347-.344.7-.681,1.03-1.03s.686-.661,1.008-1.006c.351-.349.718-.693,1.052-1.052.344-.342.7-.679,1.028-1.028.344-.342.7-.679,1.03-1.028s.7-.681,1.028-1.03c.344-.342.7-.679,1.028-1.028.344-.342.7-.679,1.03-1.03.3-.293.6-.583.886-.884v36.96a6.436,6.436,0,0,0,6.661,6.666h24.08a6.522,6.522,0,0,0,5.25-2.458,1293.022,1293.022,0,0,1,2.048-2.05,6.051,6.051,0,0,0,1.03-1.03,6.12,6.12,0,0,0,1.02-1.02,5.973,5.973,0,0,0,1.04-1.037,601.861,601.861,0,0,0,2.058-2.058,6.019,6.019,0,0,0,1.028-1.028,6.12,6.12,0,0,0,1.03-1.028,6.21,6.21,0,0,0,1.028-1.03,98116.937,98116.937,0,0,1,2.055-2.055,97984.676,97984.676,0,0,1,2.058-2.058,6.205,6.205,0,0,0,1.028-1.028,628.933,628.933,0,0,0,2.058-2.058,32714.058,32714.058,0,0,0,2.058-2.058,14053.051,14053.051,0,0,1,2.06-2.06,6.155,6.155,0,0,0,1.03-1.032,6.074,6.074,0,0,0,1.025-1.025,6.2,6.2,0,0,0,1.028-1.028,6.122,6.122,0,0,0,1.023-1.02,6.238,6.238,0,0,0,1.04-1.037c.107-.088.22-.171.322-.264l13.686,26.452a5.243,5.243,0,0,0,4.943,3.01h24.5a8.182,8.182,0,0,0,6.52-2.888,7.086,7.086,0,0,0,1.02-1.023,7.2,7.2,0,0,0,1.03-1.03,1885.156,1885.156,0,0,1,3.085-3.083,7.2,7.2,0,0,0,1.028-1.03,7.061,7.061,0,0,0,1.03-1.028,7.313,7.313,0,0,0,1.028-1.03,1225.546,1225.546,0,0,1,2.058-2.055,7.186,7.186,0,0,0,1.028-1.03,6.928,6.928,0,0,0,1.028-1.028,3498.823,3498.823,0,0,0,3.085-3.083,1260.011,1260.011,0,0,1,2.063-2.06,7.189,7.189,0,0,0,1.028-1.03,7.076,7.076,0,0,0,1.03-1.028,7.3,7.3,0,0,0,1.028-1.028,7.186,7.186,0,0,0,1.028-1.03,6.947,6.947,0,0,0,1.037-1.037,1078.272,1078.272,0,0,1,2.048-2.05,48881.927,48881.927,0,0,1,2.058-2.058,7.065,7.065,0,0,0,1.03-1.028,7.191,7.191,0,0,0,1.028-1.03,6.933,6.933,0,0,0,1.028-1.028,583.888,583.888,0,0,0,2.057-2.058,6.922,6.922,0,0,0,1.028-1.028,628.914,628.914,0,0,0,2.058-2.058,588.188,588.188,0,0,0,2.053-2.053,408.2,408.2,0,0,0,2.065-2.063,7.067,7.067,0,0,0,1.03-1.028,7.166,7.166,0,0,0,1.028-1.028,637.1,637.1,0,0,1,2.058-2.058,7.175,7.175,0,0,0,1.035-1.037,6.972,6.972,0,0,0,1.02-1.025,1256.989,1256.989,0,0,0,2.058-2.055,7.174,7.174,0,0,0,1.028-1.028A24524.686,24524.686,0,0,1,606,591.055,637.063,637.063,0,0,0,608.056,589a7.064,7.064,0,0,0,1.03-1.028,7.32,7.32,0,0,0,1.028-1.03,7.053,7.053,0,0,0,1.028-1.028,1850.957,1850.957,0,0,1,3.083-3.08,1261.237,1261.237,0,0,1,2.065-2.062,7.18,7.18,0,0,0,1.028-1.028,637.063,637.063,0,0,1,2.058-2.058,7.2,7.2,0,0,0,1.028-1.03,7.066,7.066,0,0,0,1.037-1.037,1276.58,1276.58,0,0,1,2.048-2.05,7.219,7.219,0,0,0,1.03-1.03,7.141,7.141,0,0,0,1.025-1.025,607.032,607.032,0,0,0,2.06-2.06,1361.927,1361.927,0,0,1,2.058-2.055,7.2,7.2,0,0,0,1.028-1.03,6.93,6.93,0,0,0,1.028-1.028A8.545,8.545,0,0,1,626.239,567.185ZM191.331,240.444c38.264,0,53.742,16.339,53.742,51.594s-15.478,51.589-53.742,51.589H181.013c-4.084,0-6.449,2.153-6.449,6.451v34.395q0,6.448-6.449,6.446H144.038c-4.084,0-6.446-2.363-6.446-6.446V247.111c0-4.3,2.15-6.451,6.446-6.666Zm120.82,0c11.958,0,21.69,1.6,29.42,4.867a6.607,6.607,0,0,0,.491-.615,6.993,6.993,0,0,0,.644-.547v1.721c16.164,7.4,23.184,22.5,23.184,46.168,0,19.989-4.943,33.963-16.335,42.13a2.28,2.28,0,0,0-.644,2.795L371.7,379.31c3.01,5.59-.43,11.609-7.091,11.609H340.1a5.239,5.239,0,0,1-4.945-3.01L312.8,344.7a2.2,2.2,0,0,0-1.721-1.076h-8.6a6.437,6.437,0,0,0-6.664,6.666v33.965a6.434,6.434,0,0,1-6.664,6.661H265.076a6.436,6.436,0,0,1-6.664-6.661V247.111a6.437,6.437,0,0,1,6.664-6.666ZM174.464,389.072c.354-.334.693-.681,1.03-1.03.349-.332.686-.676,1.02-1.02.356-.337.7-.688,1.04-1.04s.7-.688,1.04-1.04c.347-.33.681-.674,1.015-1.018.354-.334.691-.681,1.028-1.028.205-.193.422-.374.62-.571v36.543a9.011,9.011,0,0,1,1.906,2.788L212.4,493.24c.859,1.933,2.58,1.506,2.58-.647V423.164c0-4.3,2.363-6.451,6.446-6.451H245.5q6.451,0,6.449,6.451V560.739c0,4.084-2.148,6.446-6.449,6.446H213.9a7.418,7.418,0,0,1-7.525-4.943L177.144,490.66c-.859-1.933-2.58-1.5-2.58.644v69.434c0,4.084-2.148,6.446-6.449,6.446H144.038c-4.084,0-6.446-2.363-6.446-6.446V423.164c0-4.3,2.363-6.451,6.446-6.451h1.36c.066-.078.1-.188.164-.273a4.573,4.573,0,0,0,1.03-1.028,4.625,4.625,0,0,0,1.028-1.03,4.563,4.563,0,0,0,1.028-1.028,4.624,4.624,0,0,0,.7-.483,34.978,34.978,0,0,0,6.617-5.3c.347-.33.681-.674,1.013-1.015.354-.334.691-.681,1.03-1.03.352-.332.691-.681,1.028-1.028s.691-.681,1.028-1.028c.354-.334.691-.681,1.03-1.03.352-.332.691-.681,1.028-1.028s.691-.681,1.028-1.028c.354-.334.693-.681,1.03-1.03.349-.332.686-.676,1.023-1.02.354-.337.7-.686,1.035-1.037.354-.332.693-.679,1.03-1.028s.691-.681,1.028-1.028c.354-.334.691-.681,1.028-1.03.354-.332.693-.681,1.03-1.028s.691-.681,1.028-1.028c.354-.334.691-.681,1.03-1.03.351-.332.691-.681,1.028-1.028S174.127,389.418,174.464,389.072Zm202.174,34.092v24.075c0,4.081-2.148,6.446-6.444,6.446H318.173c-4.086,0-6.451,2.153-6.451,6.449v6.881c0,4.084,2.365,6.446,6.451,6.446h33.316q6.451,0,6.449,6.451v24.075c0,4.086-2.148,6.449-6.449,6.449H318.173c-4.086,0-6.451,2.151-6.451,6.451v6.876c0,4.086,2.365,6.451,6.451,6.451h52.021q6.444,0,6.444,6.446v24.077q0,6.448-6.444,6.446H279.909c-4.086,0-6.451-2.363-6.451-6.446V423.164c0-4.3,2.365-6.451,6.451-6.451h90.285Q376.638,416.713,376.638,423.164Z" transform="translate(609.825 244.764)"/><path class="d" d="M90.971,119.831v91.141c0,4.73,2.365,7.311,6.449,7.311H121.5q6.448,0,6.449-6.449v-18.7c0-4.3,2.363-6.449,6.446-6.449h18.49q6.448,0,6.446,6.449v18.7c0,4.3,2.368,6.449,6.451,6.449h24.075c4.3,0,6.449-2.58,6.449-7.311V119.831c0-8.565-.434-17.3-2.551-25.239-4.577-17.179-17.04-30.653-50.114-30.653-20.345,0-32.872,5.109-40.583,13.03C92.436,87.879,90.971,104.138,90.971,119.831Zm61.911,29.879h-18.49c-4.084,0-6.446-2.365-6.446-6.449v-23.43c0-10.32,1.5-15.478,15.693-15.478s15.69,5.158,15.69,15.478v23.216C159.329,147.345,157.181,149.5,152.882,149.71Z" transform="translate(655.369 241.137)"/><path class="d" d="M142.495,72.19V209.335A6.436,6.436,0,0,0,149.159,216h24.077a6.434,6.434,0,0,0,6.661-6.664V175.372a6.437,6.437,0,0,1,6.664-6.666h8.6a2.191,2.191,0,0,1,1.721,1.076l22.354,43.207A5.243,5.243,0,0,0,224.18,216h24.5c6.666,0,10.105-6.019,7.1-11.609l-22.786-42.347a2.28,2.28,0,0,1,.644-2.795c11.394-8.167,16.337-22.142,16.337-42.133,0-14.023-2.5-25-7.855-33.2-8.114-12.414-22.842-18.387-45.887-18.387H149.159a6.514,6.514,0,0,0-5.243,2.448A6.712,6.712,0,0,0,142.495,72.19ZM186.561,102.5h10.965c10.318,0,15.478,1.291,15.478,14.616s-5.16,14.619-15.478,14.619H186.561a6.437,6.437,0,0,1-6.664-6.664V109.163A6.435,6.435,0,0,1,186.561,102.5Z" transform="translate(729.611 243.421)"/><path class="d" d="M189.439,71.975V96.05c0,4.084,2.368,6.449,6.449,6.449h30.094q6.455,0,6.451,6.449v100.6c0,4.084,2.363,6.449,6.449,6.449h24.077a6.719,6.719,0,0,0,4.172-1.279,6.048,6.048,0,0,0,2.273-5.17v-100.6c0-4.3,2.37-6.449,6.451-6.449h30.094a6.724,6.724,0,0,0,4.176-1.279,6.052,6.052,0,0,0,2.275-5.17V71.975q0-6.451-6.451-6.451H195.888a6.055,6.055,0,0,0-5.17,2.275A6.724,6.724,0,0,0,189.439,71.975Z" transform="translate(797.253 243.421)"/><path class="e" d="M97.858,137.736c-4.3.215-6.446,2.368-6.446,6.666V281.765c0,4.084,2.363,6.446,6.446,6.446h24.077q6.451,0,6.449-6.446V247.37c0-4.3,2.365-6.451,6.449-6.451h10.318c38.264,0,53.742-16.337,53.742-51.589s-15.478-51.594-53.742-51.594Zm30.526,43.424c0-4.3,2.365-6.449,6.449-6.449h11.609c10.318,0,15.478,1.291,15.478,14.619s-5.16,14.616-15.478,14.616H134.833c-4.084,0-6.449-2.365-6.449-6.449Z" transform="translate(656.005 347.473)"/><path class="e" d="M147.574,137.736a6.437,6.437,0,0,0-6.664,6.666V281.55a6.436,6.436,0,0,0,6.664,6.661h24.075a6.434,6.434,0,0,0,6.664-6.661V247.584a6.437,6.437,0,0,1,6.664-6.666h8.6a2.2,2.2,0,0,1,1.721,1.076L217.65,285.2a5.239,5.239,0,0,0,4.945,3.01H247.1c6.661,0,10.1-6.019,7.091-11.609l-22.784-42.347a2.28,2.28,0,0,1,.644-2.795c11.392-8.167,16.335-22.142,16.335-42.13,0-23.667-7.02-38.771-23.184-46.167-.388-.178-.735-.391-1.135-.559-7.73-3.271-17.462-4.867-29.42-4.867Zm37.4,36.975H195.94c10.318,0,15.478,1.291,15.478,14.619s-5.16,14.616-15.478,14.616H184.976a6.436,6.436,0,0,1-6.664-6.664V181.375A6.436,6.436,0,0,1,184.976,174.711Z" transform="translate(727.327 347.473)"/><path class="d" d="M199.587,137.736c-4.086,0-6.449,2.15-6.449,6.451V281.765c0,4.084,2.363,6.446,6.449,6.446h90.285a6.876,6.876,0,0,0,4.191-1.225c1.445-1.047,2.255-2.729,2.255-5.221V257.687q0-6.448-6.446-6.446H237.851c-4.086,0-6.449-2.365-6.449-6.451v-6.878c0-4.3,2.363-6.451,6.449-6.451h33.316a6.724,6.724,0,0,0,4.176-1.279,6.044,6.044,0,0,0,2.275-5.167V200.936c0-3.632-1.631-5.636-4.7-6.2a8.992,8.992,0,0,0-1.75-.249H237.851c-4.086,0-6.449-2.363-6.449-6.449V181.16c0-4.3,2.363-6.449,6.449-6.449h52.021a6.727,6.727,0,0,0,4.174-1.279,6.057,6.057,0,0,0,2.272-5.17V144.187q0-6.451-6.446-6.451H199.587Z" transform="translate(802.583 347.473)"/><path class="d" d="M99.218,209.95h-1.36c-4.084,0-6.446,2.15-6.446,6.451V353.976c0,4.084,2.363,6.446,6.446,6.446h24.077c4.3,0,6.449-2.363,6.449-6.446V284.542c0-2.148,1.721-2.578,2.58-.644L160.2,355.48a7.418,7.418,0,0,0,7.525,4.943h31.6c4.3,0,6.449-2.363,6.449-6.446V216.4q0-6.451-6.449-6.451H175.245c-4.084,0-6.447,2.15-6.447,6.451v69.429c0,2.153-1.721,2.58-2.58.647l-29.235-71.585a9.009,9.009,0,0,0-1.906-2.788,7.45,7.45,0,0,0-5.617-2.155Z" transform="translate(656.005 451.527)"/><path class="e" d="M153.525,209.95c-4.086,0-6.451,2.15-6.451,6.451V353.976c0,4.084,2.365,6.446,6.451,6.446H243.81q6.444,0,6.444-6.446V329.9q0-6.448-6.444-6.446H191.789c-4.086,0-6.451-2.365-6.451-6.451v-6.876c0-4.3,2.365-6.451,6.451-6.451h33.316c4.3,0,6.449-2.363,6.449-6.449V273.15q0-6.448-6.449-6.451H191.789c-4.086,0-6.451-2.363-6.451-6.446v-6.881c0-4.3,2.365-6.449,6.451-6.449H243.81c4.3,0,6.444-2.365,6.444-6.446V216.4q0-6.451-6.444-6.451Z" transform="translate(736.208 451.527)"/><path class="d" d="M232.577,216.4q0-6.451-6.447-6.451H202.05c-4.084,0-6.446,2.15-6.446,6.451v95.657c0,14.189,3.01,52.236,53.954,52.236s53.959-38.047,53.959-52.236V216.4q0-6.451-6.451-6.451H272.991a6.049,6.049,0,0,0-5.17,2.275,6.724,6.724,0,0,0-1.279,4.176v84.263c0,16.552-1.076,26.655-16.984,26.655s-16.981-10.1-16.981-26.655V216.4Z" transform="translate(806.136 449.527)"/><path class="d" d="M361.381,348.814,338.6,306.469a2.683,2.683,0,0,1-.168-1.4,2.09,2.09,0,0,1,.813-1.4,33.581,33.581,0,0,0,3.483-2.922c8.9-8.409,12.854-21.409,12.854-39.211,0-35.254-15.475-51.591-53.739-51.591H254.762a6.524,6.524,0,0,0-5.248,2.448,6.729,6.729,0,0,0-1.418,4.218V353.761a6.436,6.436,0,0,0,6.666,6.661h24.075a6.435,6.435,0,0,0,6.664-6.661V319.8a6.437,6.437,0,0,1,6.664-6.666h8.6a2.2,2.2,0,0,1,1.723,1.076l22.351,43.207a5.24,5.24,0,0,0,4.948,3.01H354.29a8.545,8.545,0,0,0,5.477-1.848C362.5,356.371,363.375,352.517,361.381,348.814ZM303.126,276.16H292.164a6.437,6.437,0,0,1-6.664-6.666V253.586a6.436,6.436,0,0,1,6.664-6.664h10.962c10.32,0,15.48,1.291,15.48,14.619S313.447,276.16,303.126,276.16Z" transform="translate(881.773 453.527)"/><path class="c" d="M296.526,239.716c0-13.327-5.16-14.619-15.48-14.619H270.084a6.436,6.436,0,0,0-6.664,6.664v15.907a6.437,6.437,0,0,0,6.664,6.666h10.962C291.366,254.334,296.526,253.043,296.526,239.716Z" transform="translate(903.853 473.353)"/></g></svg>