<?xml version="1.0" encoding="utf-8"?>
<!-- Generator: Adobe Illustrator 24.1.0, SVG Export Plug-In . SVG Version: 6.00 Build 0)  -->
<svg version="1.1" id="Layer_2" xmlns="http://www.w3.org/2000/svg" xmlns:xlink="http://www.w3.org/1999/xlink" x="0px" y="0px"
	 viewBox="0 0 899.3 1745" style="enable-background:new 0 0 899.3 1745;" xml:space="preserve">
<style type="text/css">
	.st0{fill:#231F20;}
	.st1{fill:#F2665B;}
	.st2{fill:#FFFFFF;stroke:#231F20;stroke-width:6;stroke-miterlimit:10;}
	.st3{fill:#426FB6;}
	.st4{fill:#FFF2A9;}
	.st5{fill:#FED800;}
	.st6{opacity:0.629;fill:#FED800;enable-background:new    ;}
	.st7{fill:#FFFFFF;}
	.st8{fill:#F6B5C5;}
</style>
<path class="st0" d="M401.3,597.7c0,0-72.8,20.2-119.7,102.7S79.3,975.5,93.1,1110.6s93.8,153.7,144,133.5
	c0,0,81.7,194.2,250.8,114.9s150.5-116.5,150.5-116.5s161.8,56.6,134.3-164.2C745.1,857.4,521.9,521.7,401.3,597.7z"/>
<path class="st1" d="M341.8,1191.8c0,0-205.8,440.8-341.8,553.6h899.3c0,0-336.5-411.5-372-553.6H341.8z"/>
<path class="st2" d="M542.2,747c0-59.6-48.3-107.8-107.8-107.8S326.5,687.5,326.5,747c0,46.7,29.7,86.5,71.2,101.5l-5.3,80.1h86.8
	l-14.6-78.1C509.4,837.5,542.2,796.1,542.2,747z"/>
<path class="st3" d="M264.4,919.9h342.9c0,221.8-76.8,401.5-171.5,401.5S264.4,1141.7,264.4,919.9z"/>
<path class="st2" d="M573.5,1083.2c0,0,253.8-204.8,267.6-336.5c0,0-129.7-242.1-187.6-296.5c0,0-44.1-106.9-44.1-128.3
	c0-21.4-19.9-41.9-30.3,39.7l-92.5,8.1c0,0,86.2,88,121.4,102.5c0,0,73.1,195.2,139.3,275.9c0,0-166.9,129.7-177.9,171
	C569.3,919,496.2,979.7,573.5,1083.2z"/>
<path class="st2" d="M292.4,1083.2c0,0-253.8-204.8-267.6-336.5c0,0,129.7-242.1,187.6-296.5c0,0,44.1-106.9,44.1-128.3
	c0-21.4,19.9-41.9,30.3,39.7l92.5,8.1c0,0-86.2,88-121.4,102.5c0,0-73.1,195.2-139.3,275.9c0,0,166.9,129.7,177.9,171
	C296.5,919,369.6,979.7,292.4,1083.2z"/>
<g>
	<path class="st4" d="M541.5,420.2H293.2c0-70.4,55.6-127.5,124.1-127.5S541.5,349.8,541.5,420.2z"/>
	<path class="st5" d="M292.7,163.8l40.6,70.6c-21.3,12.3-47.7,6.4-58.9-13.1C263.2,201.8,271.4,176.1,292.7,163.8z"/>
	<path class="st5" d="M538.1,163.8l-40.6,70.6c21.3,12.3,47.7,6.4,58.9-13.1S559.4,176.1,538.1,163.8z"/>
	<polygon class="st6" points="416.9,380.2 544.9,158.6 289,158.6 	"/>
</g>
<path class="st2" d="M342.6,323.2c0,0,19.8-20.2,27.6-3.7c7.8,16.6-32.2,53.3-32.2,53.3s-13.3-3.7-8.3-14.7
	C334.8,347.1,342.6,323.2,342.6,323.2z"/>
<path class="st2" d="M527,323.2c0,0-19.8-20.2-27.6-3.7c-7.8,16.6,32.2,53.3,32.2,53.3s13.3-3.7,8.3-14.7S527,323.2,527,323.2z"/>
<path class="st2" d="M279.2,326c0,0,21.1-35.4,35.2-8.3c0,0,27.9-18.9,24.5,14.2c0,0-23.9,45.1-40.9,42.3c-16.9-2.8,7.8-38,7.8-38
	s-34,48.2-34.8,28.8C270.4,345.5,279.2,326,279.2,326z"/>
<path class="st2" d="M586.6,326c0,0-21.1-35.4-35.2-8.3c0,0-27.9-18.9-24.5,14.2c0,0,23.9,45.1,40.9,42.3c16.9-2.8-7.8-38-7.8-38
	s34,48.2,34.8,28.8C595.5,345.5,586.6,326,586.6,326z"/>
<polygon class="st3" points="416.1,0 436.5,43.1 483.6,50.7 448.9,83.4 456.3,130.6 414.4,107.7 371.9,129.3 380.6,82.4 347,48.6 
	394.3,42.5 "/>
<path class="st0" d="M326.5,747c0,0,100.4-21.2,105.8-83.7c0,0,56.6,80.4,113.3,98.2c0,0,35.1-112.7-91.7-135.9
	C327.2,602.3,294,704,326.5,747z"/>
<circle class="st2" cx="395.3" cy="734" r="12.4"/>
<circle class="st2" cx="465.1" cy="734" r="12.4"/>
<path class="st2" d="M409.8,765.3c0,0,2.6,12.3,21.6,12.3c18,0,21.6-14.6,21.6-14.6"/>
<g>
	<path class="st7" d="M717.6,1012.8c4.2,15.5,7.5,31.3,10.3,47.2c1.4,7.9,2.6,15.9,3.6,23.9c1,8,1.8,16,2.4,24.1
		c0.6,8.1,0.9,16.2,1,24.3c0,8.1-0.3,16.3-1.2,24.4c-0.9,8.1-2.3,16.2-4.8,24.2c-2.5,7.9-6,15.8-12,22.2l-3.8,4.1l-1.3-5.4
		c-1.5-6.1-3.3-12.3-5.4-18.4c-2.1-6.1-4.3-12-6.9-17.8c-2.6-5.8-5.6-11.4-9.1-16.6c-1.8-2.6-3.7-5-5.9-7.2
		c-2.1-2.2-4.5-4.1-7.1-5.5l3.4-2.6c1.3,7.8,2.1,15.5,2.5,23.3c0.4,7.8,0.4,15.6-0.3,23.4c-0.8,7.8-2.1,15.6-5.2,22.9
		c-1.6,3.6-3.6,7.1-6.3,10c-2.7,2.9-6.1,5.1-9.8,6.1c3.6-1.4,6.8-3.8,9.1-6.7c2.4-3,4.1-6.4,5.4-10c2.5-7.2,3.5-14.8,3.8-22.4
		c0.3-7.6,0-15.3-0.7-22.9c-0.7-7.6-1.7-15.3-3.2-22.7l-0.9-4.7l4.3,2.1c3.2,1.6,6,3.7,8.5,6.1c2.5,2.4,4.6,5,6.6,7.7
		c3.9,5.5,7.1,11.3,9.9,17.3c2.8,6,5.2,12.1,7.4,18.3c2.1,6.2,4,12.4,5.6,18.9l-5.1-1.3c2.5-2.7,4.6-5.9,6.3-9.3
		c1.8-3.4,3.2-7,4.4-10.7c2.4-7.4,3.8-15.2,4.7-23c1.9-15.7,1.8-31.7,1.1-47.7c-0.4-8-0.9-16-1.7-23.9c-0.7-8-1.6-16-2.6-23.9
		C722.9,1044.5,720.5,1028.6,717.6,1012.8z"/>
</g>
<g>
	<path class="st7" d="M137.6,1028.1c-2.4,15.3-4,30.8-4.7,46.2c-0.8,15.4-0.7,30.9,0.6,46.3c0.3,3.8,0.8,7.7,1.3,11.5
		c0.5,3.8,1.1,7.6,1.8,11.3c1.4,7.5,3.3,14.9,5.8,22.1c1.3,3.6,2.6,7.1,4.3,10.5c1.6,3.4,3.3,6.8,5.3,10c3.9,6.4,8.7,12.2,14.3,17
		l-4.8,3.1c-0.8-2.5-1.3-4.9-1.9-7.4c-0.5-2.5-1-4.9-1.3-7.4c-0.7-5-1.1-10-0.9-15.1c0.1-2.5,0.3-5.1,0.7-7.7
		c0.4-2.5,0.9-5.1,1.7-7.6c1.6-5,4.3-9.9,8.2-13.6l3.9-3.7l0.9,5.4c0.1,0.7,0.3,1.6,0.5,2.5c0.2,0.9,0.4,1.7,0.7,2.6
		c0.2,0.9,0.5,1.7,0.8,2.6c0.3,0.9,0.5,1.7,0.9,2.6c0.6,1.7,1.2,3.4,2,5l1.1,2.5l1.2,2.4c3.3,6.5,7.3,12.6,11.7,18.4l3.5,4.2
		c0.6,0.7,1.2,1.4,1.8,2.1l1.9,2c1.3,1.3,2.5,2.7,3.8,3.9l4.1,3.7l2,1.8l2.1,1.7l4.3,3.4c0.7,0.6,1.5,1.1,2.2,1.6l2.3,1.6l4.5,3.2
		l-2.4,2.1c-2-4.5-3.6-9-5.2-13.7c-1.5-4.6-2.9-9.3-4-14c-1.1-4.7-1.9-9.6-2.2-14.4c-0.3-4.8-0.1-9.8,1.6-14.4
		c-1.3,4.7-1.1,9.6-0.5,14.3c0.6,4.8,1.7,9.4,3,14c1.3,4.6,2.9,9.1,4.6,13.6c1.7,4.5,3.6,8.9,5.7,13.2l2.5,5.2l-4.9-3.1l-4.8-3
		l-2.4-1.5c-0.8-0.5-1.6-1-2.3-1.6l-4.6-3.4l-2.3-1.7c-0.7-0.6-1.4-1.2-2.2-1.8l-4.3-3.7c-1.4-1.3-2.7-2.6-4.1-4l-2-2
		c-0.7-0.7-1.3-1.4-1.9-2.1l-3.8-4.3c-4.8-5.9-9.1-12.2-12.7-19l-1.3-2.5l-1.2-2.6c-0.8-1.7-1.5-3.5-2.2-5.3c-0.4-0.9-0.7-1.8-1-2.7
		c-0.3-0.9-0.6-1.8-0.9-2.8c-0.3-0.9-0.6-1.9-0.8-2.8c-0.2-1-0.5-1.9-0.6-3l4.8,1.7c-3.1,3.1-5.3,6.9-6.6,11.3
		c-0.7,2.1-1.2,4.4-1.5,6.7c-0.3,2.3-0.5,4.6-0.6,6.9c-0.1,4.7,0.3,9.4,1,14.1c0.3,2.3,0.8,4.7,1.3,7c0.5,2.3,1.1,4.7,1.7,6.8
		l2.9,9.8l-7.7-6.7c-6.1-5.3-11.3-11.7-15.4-18.5c-4.2-6.9-7.4-14.2-9.8-21.7c-5-15.1-7.3-30.8-8.2-46.4
		c-0.9-15.6-0.3-31.3,1.2-46.8c0.8-7.8,1.7-15.5,3-23.2C134.3,1043.3,135.7,1035.7,137.6,1028.1z"/>
</g>
<g>
	<path class="st7" d="M449.9,654.4c0.8,2.4,1.8,4.7,2.8,7c1,2.3,2.1,4.5,3.4,6.7c2.4,4.4,5.1,8.5,8.1,12.4c3,3.9,6.2,7.6,9.7,11.1
		c3.5,3.4,7.3,6.6,11.3,9.4c4,2.8,8.2,5.3,12.5,7.5c2.1,1.1,4.4,2,6.6,3c1.1,0.5,2.3,0.9,3.4,1.3c1.1,0.4,2.3,0.9,3.5,1.2
		c9.3,3,18.9,4.8,28.7,5.5l-1.4,5.7c-1.7-0.8-3.1-1.6-4.5-2.4c-1.4-0.9-2.8-1.8-4.2-2.8c-2.7-2-5.3-4.2-7.6-6.7
		c-2.3-2.5-4.4-5.4-5.8-8.7c-0.7-1.6-1.2-3.4-1.6-5.2c-0.3-1.8-0.4-3.6-0.3-5.4l0.1-2.9l2.8,0.4c1.8,0.3,3.3,0.6,5,1
		c1.6,0.4,3.2,0.8,4.8,1.3c3.2,1,6.3,2.1,9.3,3.4c6.1,2.6,11.9,5.9,17,10.1c5.1,4.1,9.6,9.2,12.9,14.8l0.6,1l0.6,1.1
		c0.4,0.7,0.8,1.4,1.1,2.2c0.6,1.5,1.3,3,1.8,4.5c1.2,3,1.8,6.2,2.4,9.4c-1-3.1-2-6.1-3.5-8.9c-0.6-1.5-1.5-2.8-2.2-4.2
		c-0.4-0.7-0.9-1.3-1.3-2l-0.6-1l-0.7-1c-1.8-2.6-3.9-4.9-6.1-7.1c-2.2-2.2-4.6-4.2-7.2-6c-5.1-3.6-10.7-6.5-16.5-8.7
		c-2.9-1.1-5.9-2-8.9-2.8c-1.5-0.4-3-0.8-4.5-1c-1.5-0.3-3.1-0.6-4.5-0.7l3-2.5c0,1.4,0.1,2.8,0.4,4.1c0.3,1.3,0.8,2.7,1.3,3.9
		c1.2,2.5,2.9,4.9,4.9,7.1c2,2.2,4.4,4.1,6.8,5.8c1.2,0.9,2.5,1.7,3.8,2.5c1.3,0.8,2.7,1.5,3.9,2.1l15,6.9l-16.4-1.2
		c-10.2-0.8-20.4-2.7-30.1-6c-1.2-0.4-2.4-0.9-3.6-1.4c-1.2-0.5-2.4-0.9-3.6-1.5c-2.3-1.1-4.7-2.1-6.9-3.4c-2.3-1.2-4.5-2.6-6.7-3.9
		c-2.1-1.5-4.3-2.9-6.3-4.5c-4-3.2-7.9-6.6-11.3-10.4c-3.4-3.8-6.5-7.9-9.3-12.1c-2.7-4.3-5.2-8.8-7.2-13.4
		C452.5,664.1,450.8,659.3,449.9,654.4z"/>
</g>
<g>
	<path class="st7" d="M402.1,662.5c-3.1,8.2-7.3,16-12.1,23.5c-2.4,3.7-4.9,7.4-7.6,10.9c-2.7,3.5-5.6,6.9-8.7,10.1
		c-3.1,3.2-6.4,6.3-9.8,9.1c-3.5,2.8-7.2,5.4-11.1,7.8c-3.9,2.3-8,4.3-12.3,5.9c-4.3,1.6-8.7,2.7-13.2,3.5l-13.3,2.2l11.2-7.5
		c2.2-1.5,4.5-3.1,6.7-4.8c2.2-1.7,4.3-3.5,6.4-5.4c4.2-3.7,8.1-7.7,11.6-11.9c1.8-2.1,3.5-4.3,5.1-6.6c1.5-2.3,3-4.7,4.3-7.1
		c1.3-2.5,2.4-5,3.4-7.7c0.9-2.7,1.6-5.4,2.1-8.2c0,2.9-0.3,5.7-0.8,8.6c-0.6,2.8-1.4,5.6-2.5,8.3c-1.1,2.7-2.3,5.3-3.7,7.9
		c-1.4,2.5-3,5-4.7,7.4c-3.4,4.7-7.2,9.1-11.4,13.2c-2.1,2-4.2,4-6.4,5.9c-2.2,1.9-4.4,3.7-7,5.4l-2.1-5.3c4.1-0.8,8.1-1.9,12.1-3.3
		c3.9-1.5,7.7-3.3,11.4-5.4c7.3-4.3,14-9.6,20.2-15.5c6.2-5.9,11.9-12.4,17.2-19.3C392.6,677.2,397.6,670,402.1,662.5z"/>
</g>
<circle class="st4" cx="161" cy="363.3" r="27.3"/>
<circle class="st5" cx="707.6" cy="301.9" r="27.3"/>
<circle class="st8" cx="638.3" cy="192.8" r="27.3"/>
<circle class="st8" cx="574.6" cy="45.1" r="27.3"/>
<circle class="st5" cx="186" cy="115.6" r="27.3"/>
<circle class="st5" cx="171.8" cy="205.9" r="16.5"/>
<circle class="st8" cx="79.2" cy="251.9" r="16.5"/>
<circle class="st8" cx="187.1" cy="282.6" r="16.5"/>
<circle class="st8" cx="583.7" cy="125.8" r="16.5"/>
<circle class="st5" cx="679.2" cy="104.2" r="16.5"/>
<circle class="st4" cx="623.5" cy="262.2" r="16.5"/>
<circle class="st8" cx="683.7" cy="383.7" r="16.5"/>
<circle class="st5" cx="265.5" cy="108.7" r="16.5"/>
<circle class="st8" cx="737.1" cy="211" r="16.5"/>
<circle class="st8" cx="253" cy="41.7" r="16.5"/>
</svg>
