<svg xmlns="http://www.w3.org/2000/svg" width="74" height="69" viewBox="0 0 74 69">
  <defs>
    <style>
      .cls-1 {
        fill: #ffd800;
      }

      .cls-2 {
        fill: none;
        stroke: #231f20;
        stroke-linecap: round;
        stroke-linejoin: round;
        stroke-width: 3px;
      }
    </style>
  </defs>
  <g id="Group_107" data-name="Group 107" transform="translate(-768 -3517)">
    <rect id="Rectangle_67" data-name="Rectangle 67" class="cls-1" width="74" height="69" rx="10" transform="translate(768 3517)"/>
    <g id="users" transform="translate(784.444 3533)">
      <path id="Path_579" data-name="Path 579" class="cls-2" d="M29.444,25.667V22.111A7.111,7.111,0,0,0,22.333,15H8.111A7.111,7.111,0,0,0,1,22.111v3.556" transform="translate(0 9.333)"/>
      <circle id="Ellipse_9" data-name="Ellipse 9" class="cls-2" cx="7" cy="7" r="7" transform="translate(8.556 3)"/>
      <path id="Path_580" data-name="Path 580" class="cls-2" d="M25.333,25.566V22.01A7.111,7.111,0,0,0,20,15.13" transform="translate(14.778 9.434)"/>
      <path id="Path_581" data-name="Path 581" class="cls-2" d="M16,3.13a7.111,7.111,0,0,1,0,13.778" transform="translate(11.667 0.101)"/>
    </g>
  </g>
</svg>
